<svg xmlns="http://www.w3.org/2000/svg" width="33.858" height="33.85" viewBox="0 0 33.858 33.85">
    <defs>
        <style>.a{fill:#383d46;}</style>
    </defs>
    <path class="a"
          d="M16.858,40.071a8.679,8.679,0,1,0,8.679,8.679A8.665,8.665,0,0,0,16.858,40.071Zm0,14.321A5.642,5.642,0,1,1,22.5,48.75,5.653,5.653,0,0,1,16.858,54.392ZM27.916,39.716a2.024,2.024,0,1,1-2.024-2.024A2.02,2.02,0,0,1,27.916,39.716Zm5.748,2.054a10.018,10.018,0,0,0-2.734-7.093,10.084,10.084,0,0,0-7.093-2.734c-2.795-.159-11.171-.159-13.966,0a10.069,10.069,0,0,0-7.093,2.727C.792,36.65.18,39.052.044,41.763c-.159,2.795-.159,11.171,0,13.966a10.018,10.018,0,0,0,2.734,7.093,10.1,10.1,0,0,0,7.093,2.734c2.795.159,11.171.159,13.966,0a10.018,10.018,0,0,0,7.093-2.734,10.084,10.084,0,0,0,2.734-7.093C33.822,52.935,33.822,44.566,33.664,41.771Zm-3.61,16.957a5.712,5.712,0,0,1-3.218,3.218c-2.228.884-7.516.68-9.978.68s-7.757.2-9.978-.68a5.712,5.712,0,0,1-3.218-3.218c-.884-2.228-.68-7.516-.68-9.978s-.2-7.757.68-9.978A5.712,5.712,0,0,1,6.88,35.554c2.228-.884,7.516-.68,9.978-.68s7.757-.2,9.978.68a5.712,5.712,0,0,1,3.218,3.218c.884,2.228.68,7.516.68,9.978S30.937,56.507,30.053,58.728Z"
          transform="translate(0.075 -31.825)"/>
</svg>