<svg xmlns="http://www.w3.org/2000/svg" viewBox="0 0 143.63 121.28" fill="currentColor">
    <g>
      <path d="M64.57 12.18l-.5 1.42c1.77-.35 3.88-1.12 5-1.46.53 1 1.76 1.73 1.76 2.53 0 1-3.49 1.35-9.33 3.35l.23.76-.65.12a1.06 1.06 0 010 1.15c-.54 1.12-1.15 2.54-1.73 3.84-.46-.3.42-1.34 0-1.61l-1.96 4.42-.23-.23a31.31 31.31 0 001.08-3.11c-.58-.24-.89 2.3-1.77 2.38a3.64 3.64 0 00.23-2.12A7.2 7.2 0 0058.24 20c-.46.12-.62.73-.89 1.46l-.3-.19.69-1.88c-2.58.23-4.92 1.88-5 5-.57 0-.46.43-.26.73a19.43 19.43 0 00-2.27 4.31 2 2 0 01-.81-.7l.54-1.26-.46-.31-.73.77c.19-1.08 1.15-2 .58-2.84.34-.66.76-1.66 1.22-2.85l-3.45 1.58a2 2 0 01.76-1.12c.08-.31.16-.46.24-.77 1-.53 3.14-1 3.22-2l-3 1.39c.34-.77 2.61-1.88 4.11-2.58.07-.3-.16-.46-.46-.46.27-.8.57-1.57.8-2.3l-4.52 1.42v-.57l.46-.39c0-1.19.23-1.07 1.07-1.8l-.26-.35c1.19-.69 2.95-1.69 4.76-2.65C56.55 5.53 59.12 0 61 0a3.34 3.34 0 011.5.58c0 1.15 1 .84 1 1.65 0 1.42-2.69 2.73-3.07 4.84a4.59 4.59 0 00-1.89 3C60 9.45 61.23 8.49 62.73 8l-.35-.31c.93-2.11 2.58-5.95 3.73-5.95.65 0 2 1.92 2.69 2.53a4.56 4.56 0 01-1.38 1.62l-.54 1.41 1.77-.19c1-.12 2 1.07 2.92 2.07V10c-2.92.91-5.15 1.06-7 2.18zM50.05 15l-.76.54V16l1-.69zm-.19 4.15l1.5-.69c0 .19-.42.73-1.88 1.26zm0 11.52l-.34-.15.11-1 .39.27zm.14-5.62a4.84 4.84 0 01-.2 1.42l.39.11.34-1.53zm8.68-9.53A2.21 2.21 0 0060 13a10.33 10.33 0 00-3.41 1.42c-.7 1.27-1.08 1.81-.85 2.23l1.61-.57c.39-.16.73-.27 1-.43.35.58 1 .19 1.38-.38zm-.08 10.29l-.23-.27c.23-.57.31-1 .77-1zM106.91 7c-1.93 1.77-5 5-6.42 6.3l-.58-.5c.39 1.58-1 2.65-2 4.15-.39-.19 0-.69.34-1.19-.42-.31-.84.35-1.26 1s-.73 1.11-.43 1.61c-1.65 1.85-4.8 6.42-6.18 6.42-.54 0-.81-1.66-1.61-2.35l-.24.27-1.07-1.57C87 20.4 86.24 18 85.39 17c-2 2.38-5.3 7.91-5.8 7.91s-1.34-1.46-1.69-1.46a.33.33 0 00-.34.19c-1.46-1.64-2-4.64-2.11-8.24-.16-4 .23-8.52.38-12.48l.5-.38c1.8.88 3.07 4.11 3.46 5.83.61 2.85-1.92 7.42-.46 8.53l5.45-7.45.88-.31 2-3c.42-.66.35-2.15 1.08-2.15s1.84 1 2.15 2l1 3.31c-1.35 1.8-2.12 4.38-3.46 5.95.81.08 1.38 1.15 2 1.15 1 0 8.87-12.33 13.06-12.94a11.57 11.57 0 011.73-.16c-.35.35-.66.73-.2.89l1.73-1.35a1.22 1.22 0 01.77.73l1.61.27A3.59 3.59 0 01108 5.07l.31.12c.8 0 1.8-1.89 2.65-.89-1.25 1.04-2.44 2.7-4.05 2.7zM86.35 9h.43c.38-.5.8-1.11.57-1.5zm12.37 5.45l-.5.69.23.23.47-.73zm.2-.42l.23.27c.23-.35.38-.54.11-.77zm3-3c-1.11-.57-1.3.81-1.38 1.27zm2.46-3.42l.08.39c1-.81 2-1.35 2-2zm2.38-1.8l.08.34c.38-.27.73-.3.69-.88zM119.81 6.88h-.42c-1 1.46-1.65 4.14-3.42 5.1l.16.47-1.5.84c-1.5 2.15-2.15 4.8-3 7-.11.31-.61.92-.11 1.08.11 0 .38-.77.42-.89.88-2 1.54-5 2.92-6.56.54-.2.15.26.07.38-1.34 2.27-2 4.88-3.11 7.57a8.23 8.23 0 00-.84 4.22 11 11 0 01-1.92-.84V24a1.24 1.24 0 00-.43.92 6.05 6.05 0 01-2.11-2.88c0-6.92 7.15-16.36 9.91-21.44a1.59 1.59 0 011.16-.53 4.69 4.69 0 011.19.27v.92a2.34 2.34 0 011.38 2 23 23 0 01-.35 3.62zm-9 15.32l-.42 1c0 .12.08.5.31.12l.54-1.35c-.53-.5-.38.12-.42.23zM140.1 6.38C136.6 8 133 8.07 129.65 9c-.43.69-1 1.57-1.62 2.61 1.54-.15 4.73-1.46 5.84-1.46s1.46.38 2.27 1.77a.78.78 0 00.42 1l-.27.84c-2.34.38-8.06 1.31-10 2.15-1 .42-1.88 4.65-1.92 5.53 1.2.89 3 .5 4.11.23l.24.39c.26 0 .61-.23.61-.46.58-.08.77.84 1.31.69 2.49-.69 5.45-1.69 7.37-2.31.12 0 .27-.07.31 0s-.5.46-.81.62l-2.61 1c.23.15.65.42.92.57.12 0 0 .12-.08.16-1.92.65-4.3 1.3-6.45 1.84a3.4 3.4 0 002.15.08c1.54-.43 3.65-1.16 5.53-1.81.12 0 .39-.15.2.23a1.86 1.86 0 01-1.08.85c-2.5 1-5.72 2.11-8.07 2.11-4.49 0-7.68-2-7.53-7.64.08-2.85 2.42-6.34 5.23-12.22a3.6 3.6 0 01.54-2.92c1.92.23 3-2.73 4.38-2.73a18.92 18.92 0 013.26.73 5.32 5.32 0 01-.69 2.77 22.3 22.3 0 003.34.34l.35.73a5.64 5.64 0 011-.23c.42 0 1.34.39 1.88.47.08 0 .15.07.08.15-1.54 1.38-2.62.54-2.35 1.69 1.16-.46 2.12-.73 3.19-1.23.15-.08.39-.35.42-.12.05.42-.64.65-1.02.96zm-16.25 13.4c-.16.69-.2 1.19.11 1.42l.19-1zm.61-2.19L124 19l.27.35.54-1.81zm.08-.27a4.72 4.72 0 00.69-1 .59.59 0 00-.73.57zm2.19-5.57l.5-.07.38-.89c-.27 0-.77.54-.88.96zm1.76-2.57l-.65 1.08.5-.12.66-1.07zm5 11.52c-1.08.81-2.42 1.35-2.88.62a31.72 31.72 0 004.95-1.54c.16-.07.19 0 .12.16a3 3 0 01-2.19.76zm3.61-15.51l.11.46.7-.31c-.04-.19-.58-.23-.81-.15zM22.93 59.58c0 .42-.11.77-.73.92l-2.34.62c.35.42 1.27.27 2.34 0l-.19.46c-2.69.84-6.26 2.26-8.41 2.46l-4.46.42a5.11 5.11 0 00-2.3 2.38l.23.35c-.66 1.26-1.73 3.53-2.35 4.81l-.3-.2c-.27.39 0 .85 0 1.31a4 4 0 01-.62 1.54l-1.42.46c-.54.19-.85-.23-1.11-.66l-.27.3c-.46-.46-.65-.92-.39-1.23A4.14 4.14 0 010 72.06c.61-1.22 1.27-3 1.77-4.11s.38-2.15-.62-2.76l-.31-1.85A1.8 1.8 0 001.92 62l2.23-.65-.23-.35c1.11-.27.73-1.27 1.27-2.61l3.57-8.91A6 6 0 0111 46.4l2.16-1.19c2.65 0 6.3 3.08 6.3 6.8a4.57 4.57 0 01-.81 2.69c-.54-.07-1-.54-1.38-.65a4.34 4.34 0 00-1.08-2.81c-2.27.93-3.69 5-5.68 8.26.34.35 1.19-.15 2 .31l-1.19.27.35.27c1.15-.16 2.76-.42 3.88-.58.19 0 .61.35.23.46s-.54.23-.54.54l3-.58.69.43 1.07-.23a.74.74 0 00.69-.46zM2.3 65.84l.2 1a.8.8 0 00.3-.5c0-.15-.15-.34-.5-.5zm1.89 5l-.27.53.27.27.61-1.11a.77.77 0 00-.61.27zM5.88 66a1.79 1.79 0 00-.85.92 1.1 1.1 0 00.12.92zm1.38-.66c-.23 0-1.19.54-1.19 1a.41.41 0 00.42.35zm8.34-3.15c-.47.16-1 .08-1.08.27s-.12.39 0 .35l1.08-.27c.15-.08.07-.42 0-.39zm2.68-.69a7.68 7.68 0 00-2.22.62c-.12 0-.12.34 0 .3 1.19-.3 1.92-.46 2.11-.3l1.15-.35c-.27-.35-.57-.35-1.04-.31zM46.4 54.16c-.76-.07-1.84.5-.92 1.12.27.15 0 .73-.5.69l-.54-.27c-.49.92-1.11 2.15-.61 2.19l-.42.81c-.73 0-.81 1-3.19 3.91l.31.39a41.38 41.38 0 002.65-3.8.81.81 0 01.07.92C37.88 70 30 71.18 27.74 71.18c-.27 0-.27-.11-.31-.19s0-.19-.27-.19-.23.07-.23.19.08.19-.19.19c-1.08 0-1.58-1-2.12-1.69l-.42.19a5.06 5.06 0 01-2.2-4.49 11.21 11.21 0 011-4.57c1.77-3.84 4.65-10.76 6.07-14a1.86 1.86 0 011.19-.54c.85 0 2 3.15 2.34 3.95l.54-.38v.88c-1.11 2-2.73 5.38-3.72 7.57a.9.9 0 010-1c.38-.11-.16-.53-.31-.3-.92 1.34 0 2-.35 2.84-.15.34-.34.73-.53 1.19-.35-.15-.73.27-.93.65.23.12.47 0 .7-.15-.26.57-.57 1.3-.8 1.84-.16-.23-.19-.54.07-1.11l-.27-.25a4.87 4.87 0 00-.69 1.73c0 .27.16.42.5.46-.15.38-.31.77-.42 1.07 7.83 0 11.33-5.84 14.48-12.37.12-.34.73-.15 1.08-.38s.19-.54-.43-.46a36.35 36.35 0 001.54-4.19c.08-.34.31-.42.61-.42s.5.31.85.58a4.42 4.42 0 001.11.61 6.12 6.12 0 01.31 2c0 .92.15 1.77 1 1.84zM30.19 69.84c-.5-.89-1.88-.58-1.49-.12a.68.68 0 00.61.23 8.81 8.81 0 00.88-.11zm-.76-14c0 .08-.12.23-.08.27l.5.31c.27-.38.92-1.77.54-2.15zm3.49 12.83c-.65.23-1.57.12-1.5 1a9.13 9.13 0 002.23-.8c-.11-.26-.46-.26-.73-.19zm1.15-.46l.08.39A17.83 17.83 0 0037 66.8c-.93-.04-1.58.69-2.93 1.42zm1.69-21.81l-.57-.3.27-1.16a7 7 0 01-.85-3.53.81.81 0 01-.46-.77 2.5 2.5 0 012.27-2.11c1.53 0 2.72 1.69 2.72 4.42zM39.87 63c-.57.58-1.07 1.08-.69 1.58l1.08-1.2zM44 45.67A2.16 2.16 0 0142 43h-.58c0-.5 1.15-4.42 3-4.42 1.72 0 3 1.19 3 3.73-1.42.75-2.02 2.44-3.42 3.36zM64 56.43c-1.66 1-1 1.54-3 2.69-.58-.81-1.69-.15-2.84.92 3.65 3.34 7.68 8.8 11.41 8.8a18.29 18.29 0 004.57-.77 3.24 3.24 0 011.34 1 22 22 0 00-2.15.65l.08.08c.5 0 1.27.08 1 .23a14.58 14.58 0 01-3.26 1.61c-.31.12.15.31.35.27a19.4 19.4 0 004.3-2.46 2.65 2.65 0 01.38.5c-2 1.89-5.68 3.81-8.56 3.81a11 11 0 01-4.11-2.19c-1.89-1.85-7-9.18-9.34-10.37a32.52 32.52 0 00-3.11 6c-.23.5.5 1.5.31 2.23s-1.27 1.46-2.12 2.3a2.43 2.43 0 01-2-1.42l-.58-1.57c.92-.62-.34-.27-.34-1 0-2 6.3-15.83 10.06-21.48 3.15 0 2.11 2.69 2.69 3.88a11.47 11.47 0 014.07-1.11 7.82 7.82 0 012.19.27l-.27.61c.54.16 1.15.16 1.15-.34l.73.3a1.14 1.14 0 01-.3.54c.3.23.65.23.73-.19a2.7 2.7 0 011.07 2.15 2 2 0 01-.5 1.35c-1 .92-2.11 2-3.53 3.22zm-12.29 7.72l-1.12 2 .19.46 1.12-2.19zm7.83-4.26l-.23-.35c.42-.31 1.08-.54 1.27-.15zm3.92-10.34l1.23.2.19-.27a2.17 2.17 0 00-1.42.07zM69 72.18c-.54-.15-.92.23 0 .5a12.76 12.76 0 002.15-.58c-.19 0-.26-.19-.38-.26zM103.53 59.2a1.48 1.48 0 01-1 .42l.57-.62a.9.9 0 00-.84.2c-.23.23-.85.73-1.61 1.34l.69.15a58.3 58.3 0 01-13.79 8.76l-.35 2.12c-.73-.39-1.3 0-2.11 0-2.34 0-3.11-2.58-4-3.69a5.31 5.31 0 00.31-1.46l1-.42a2.05 2.05 0 001.19-1.16 30.85 30.85 0 001.34-4.34l-.15-.57c.54-1.73 1.73-3 1.81-4.54 0-1.07-1.39-1.76-1.35-2.72s1.92-1.5 2.92-2l.39.27c1.8-2 1.92-5.92 3.95-5.92.35 0 1.73 2.27 1.92 2.77A5.76 5.76 0 0194 49.9a26.15 26.15 0 014.68-.12c-.38.73.77.54 1 0 .39.31 1.46.2 2.31.47 3.53 1.07 3.72 4 3.92 5.68a21.45 21.45 0 01-2.38 3.27zm-15.87 9.25l-.08.39 1.08-.58.19-.46zM91.08 56v1.19c-.15.19-.46.31-.69.58.61-.5.54 1.23.19 1.23a1.2 1.2 0 01-.5-.23 1.77 1.77 0 01.27.81c0 .88-.81 2-1 3.42 1.39-.85 4.5-2.08 6.42-3.73.15.15.3.15.57.23l-.27-.5.35-.23c.15.27.31.31.38.31.39 0 1.12-.62 2.46-2.19 1 .35 3-2.23 2.77-3.65-6.49.04-8.88 2.11-10.95 2.76zm-1.77 12l2-1a.46.46 0 01-.08-.65A9 9 0 0089.31 68zm9.3-5.68a4 4 0 00-2.08.88c-.84.54-2.19 1.31-3.41 2.08a.92.92 0 01-.43.65c-.27-.27-.69-.16-1.11.23a2 2 0 01.88.27c2.19-1.35 4.38-3 6.15-4.07zm1.07-1.15l-1.26.69a.63.63 0 00.8 0l.81-.58zm3.54-3l-.31.34.5.12.31-.35zM119.81 53h-.42c-1 1.46-1.65 4.15-3.42 5.11l.16.46-1.5.85c-1.5 2.15-2.15 4.8-3 7-.11.31-.61.92-.11 1.07.11 0 .38-.76.42-.88.88-2 1.54-5 2.92-6.57.54-.19.15.27.07.39-1.34 2.26-2 4.88-3.11 7.56a8.28 8.28 0 00-.84 4.23 10.37 10.37 0 01-1.92-.85v-1.26a1.22 1.22 0 00-.43.92 6.1 6.1 0 01-2.11-2.88c0-6.92 7.15-16.37 9.91-21.44a1.56 1.56 0 011.16-.54 5.17 5.17 0 011.19.27v.92a2.36 2.36 0 011.38 2 22.8 22.8 0 01-.35 3.64zm-9 15.33l-.42 1c0 .11.08.5.31.11l.54-1.34c-.53-.53-.38.08-.42.2zM140.1 52.47c-3.5 1.58-7.07 1.69-10.45 2.65-.43.7-1 1.58-1.62 2.62 1.54-.16 4.73-1.46 5.84-1.46s1.46.38 2.27 1.76a.77.77 0 00.42 1l-.27.85c-2.34.38-8.06 1.3-10 2.15-1 .42-1.88 4.65-1.92 5.53 1.2.88 3 .5 4.11.23l.24.38c.26 0 .61-.23.61-.46.58-.07.77.85 1.31.7 2.49-.7 5.45-1.69 7.37-2.31.12 0 .27-.08.31 0s-.5.46-.81.61l-2.61 1c.23.16.65.43.92.58.12 0 0 .12-.08.15-1.92.66-4.3 1.31-6.45 1.85a3.33 3.33 0 002.15.07c1.54-.42 3.65-1.15 5.53-1.8.12 0 .39-.15.2.23a1.89 1.89 0 01-1.08.84c-2.5 1-5.72 2.12-8.07 2.12-4.49 0-7.68-2-7.53-7.65.08-2.84 2.42-6.33 5.23-12.21a3.6 3.6 0 01.54-2.92c1.92.23 3-2.73 4.38-2.73a18.92 18.92 0 013.26.73 5.32 5.32 0 01-.69 2.77 22.3 22.3 0 003.34.34l.35.73a5.64 5.64 0 011-.23c.42 0 1.34.39 1.88.46.08 0 .15.08.08.16-1.54 1.38-2.62.53-2.35 1.69 1.16-.46 2.12-.73 3.19-1.23.15-.08.39-.35.42-.12.05.39-.64.62-1.02.92zm-16.25 13.41c-.16.69-.2 1.19.11 1.42l.19-1zm.61-2.19l-.46 1.42.27.35.54-1.81zm.08-.27a4.79 4.79 0 00.69-1c-.5 0-.66.19-.73.58zm2.19-5.57l.5-.07.38-.89c-.27 0-.77.54-.88.96zm1.76-2.57l-.65 1.07.5-.11.65-1.08zm5 11.52c-1.08.81-2.42 1.35-2.88.62a31.72 31.72 0 004.95-1.54c.16-.08.19 0 .12.15a2.94 2.94 0 01-2.19.77zm3.61-15.52l.11.46.7-.3c-.04-.2-.58-.23-.81-.16zM20.13 95.54c2.53-.54 5.38-1.16 7.14-1.39 1.66.43 3 1.12 3.5 2.5-.65.58-.31 1.58 0 2.15a2.9 2.9 0 01-.62.27l-.07-.23a1.22 1.22 0 00-.54-.15.26.26 0 00-.27.27.66.66 0 00.08.3c-2.31.46-5.69.16-8.88 1.54H20v-.42a.92.92 0 00-.85.46c-1.31.15-1.73.65-2.54 3.07a2.86 2.86 0 01-.8 1l.34.19c-.19.81-.76 2.34-1.15 2.31s0-.81-.27-.77c-.42.07-.46.92-.65 1.53a2.91 2.91 0 01.23 1.12c-.19.5-.38 1.34-.65 1.34s-.16-.73-.31-1c-.35.73-.62 1.42-.88 2.07l.3.19c.2-.34.39-.46.73-.38a55.77 55.77 0 00-1.8 5.72 8.39 8.39 0 01-2.5-.19l.15-.42c-1-.35-.92-1.65-1.07-3.15a1.52 1.52 0 01-.31-.81c0-1 2.19-6.65 4.11-11h-3c-1.69 0-1.81.53-3 .23a8.3 8.3 0 01-1.27-3.73 1.75 1.75 0 01.54-1.27 30.26 30.26 0 007.41-.15c3.88-.81 2.19-4.46 5.77-4.46zm-4.84 10l-.39.7.23.26.31-.69zM43.25 109.33c-.3.65-.19 2.34-1 3.11.54.31.24 1.27-.26 1.73.23.57.38 1-.43 2.07 0 .15.35 0 .43-.11a13.15 13.15 0 01-.77 3.49c-1.19 0-2.27-1.15-2.88-.92 0-.77-.08-1.08-.62-1.08v-.53c.19 0 .35-.12.38-.39-.19 0-.34-.11-.34-.38.08-.89.54-2 .77-3.15.27 0 .27.5.23 1.07.27 0 .69-1.57.77-2.45l-.47-.2c0 .62 0 1.46-.49 1.27.11-.54.23-1.88.34-2.34l.65.8c0-.46.16-.57.08-1.15-2.19-.07-8 3-9.72 4.23l-.19.5.15.46a28 28 0 01-1.84 3.72l-2.42-1c-.11-1.19-1.77-1.69-1.34-2.69h-.58c.85-5.8 7.26-12 10.87-16.87a28.47 28.47 0 015.11-5.18c.27-.23 1.35.15 1.42-.58a8.17 8.17 0 012.15 1.08l-.69.23c0 .65.92-.08 1.12.08 1.42 1.22.61 3.3 1.34 4.41 0 .19 0 3.5-.61 3.84.07.08.11.08.23.16a16.51 16.51 0 00-.62 3c0 .46 1.42 1.77 1.31 3.46-.69.08-1.42.23-2.08.31zm-12.17 3.07a6.49 6.49 0 00-.43.69l2.92-1.54c-.5-.38-1.76.45-2.49.85zm1.65-1.61c-.31.11-.54.15-.81.27l-.46.65c.15-.08 1.04-.39 1.27-.92zm9.37-13.14c-.73 0-2.5 2.19-4.15 4.38l-.19-.19c.12-.31.23-.54.08-.69-.62.69-.89 1-.54 1.76-.58.77-1.11 1.46-1.61 2.08-.7.88-1.73 2.53-2.62 3.8a14.82 14.82 0 012.93-1.92 24.2 24.2 0 013.54-1.12 11.15 11.15 0 01.65-2.26l.65.57c.47-1.19 1-4.3 1.43-6zm-6.72 13c-.85 0-1.19.12-1.35.73.35-.25.97-.48 1.35-.75zm3.38 3.88l-.15.5h.23l.15-.61zm1.24-9.28c-.15.47.12.47.38.43v-.43zm.35-.61h-.16L40 105h.34zm1.11-4.72h-.35l.31-1 .35-.16zM69.07 105.68c0 .42-.12.77-.73.92l-2.35.61c.35.43 1.27.27 2.35 0l-.19.47c-2.69.84-6.27 2.26-8.42 2.45l-4.45.43a5.13 5.13 0 00-2.28 2.38l.23.34c-.65 1.27-1.73 3.54-2.34 4.84l-.31-.19c-.27.39 0 .85 0 1.31a4 4 0 01-.61 1.53l-1.43.46c-.53.2-.84-.23-1.11-.65l-.31.27c-.46-.46-.65-.92-.38-1.23a4 4 0 01-.62-1.46c.62-1.23 1.27-3 1.77-4.11s.39-2.15-.61-2.76l-.28-1.85a1.82 1.82 0 001.08-1.3l2.22-.66-.23-.38c1.12-.27.73-1.27 1.27-2.61l3.57-8.91a6 6 0 012.27-3.08l2.15-1.19c2.65 0 6.3 3.07 6.3 6.8a4.52 4.52 0 01-.81 2.69c-.53-.08-1-.54-1.38-.65a4.33 4.33 0 00-1.07-2.81c-2.27.92-3.69 5-5.69 8.26.35.35 1.19-.15 2 .31l-1.19.27.34.27c1.16-.16 2.77-.43 3.88-.58.2 0 .62.35.23.46s-.53.23-.53.54l3-.58.69.42 1.08-.23a.72.72 0 00.69-.46zm-20.63 6.26l.19 1c.19-.19.31-.35.31-.5s-.15-.31-.5-.5zm1.88 5l-.27.54.27.27.62-1.11a.82.82 0 00-.62.25zm1.68-4.89a1.85 1.85 0 00-.84.93 1.1 1.1 0 00.11.92zm1.38-.65c-.23 0-1.19.54-1.19 1 0 .19.23.35.43.35zm8.34-3.15c-.46.15-1 .08-1.08.27s-.11.38 0 .35l1.08-.27c.16-.04.09-.39.01-.35zm2.69-.69a8.13 8.13 0 00-2.23.61c-.11 0-.11.35 0 .31 1.19-.31 1.92-.46 2.11-.31l1.16-.34c-.26-.31-.57-.31-1.03-.27zM87.66 98.57c-3.5 1.58-7.07 1.69-10.45 2.65-.42.69-1 1.58-1.61 2.61 1.53-.15 4.72-1.46 5.84-1.46s1.46.39 2.26 1.77a.78.78 0 00.43 1l-.27.84c-2.35.39-8.07 1.31-10 2.16-1 .42-1.88 4.64-1.92 5.53 1.19.88 3 .5 4.11.23l.23.38c.27 0 .61-.23.61-.46.58-.08.77.85 1.31.69 2.5-.69 5.46-1.69 7.38-2.3.11 0 .26-.08.3 0s-.5.46-.8.61l-2.62 1 .93.58c.11 0 0 .11-.08.15-1.92.65-4.3 1.31-6.45 1.84a3.39 3.39 0 002.15.08c1.53-.42 3.65-1.15 5.53-1.8.11 0 .38-.16.19.23a1.9 1.9 0 01-1.07.84c-2.5 1-5.73 2.11-8.07 2.11-4.5 0-7.68-2-7.53-7.64.08-2.84 2.42-6.34 5.22-12.21a3.59 3.59 0 01.54-2.92c1.92.23 3-2.73 4.38-2.73a18.15 18.15 0 013.27.73 5.4 5.4 0 01-.7 2.76 21.14 21.14 0 003.35.35l.34.73a5.9 5.9 0 011-.23c.42 0 1.35.38 1.88.46.08 0 .16.08.08.15-1.54 1.39-2.61.54-2.34 1.69 1.15-.46 2.11-.73 3.19-1.23.15-.07.38-.34.42-.11s-.69.61-1.03.92zM71.41 112c-.15.69-.19 1.19.12 1.42l.19-1zm.62-2.19l-.43 1.42.27.34.54-1.8zm.07-.27a4.68 4.68 0 00.69-1c-.5 0-.65.19-.73.58zm2.19-5.54l.5-.08.39-.88c-.27-.04-.77.49-.89.96zm1.77-2.57l-.65 1.07.5-.11.65-1.08zm5 11.52c-1.07.81-2.42 1.34-2.88.61a31.54 31.54 0 005-1.53c.15-.08.19 0 .11.15a2.94 2.94 0 01-2.24.72zm3.61-15.52l.12.46.69-.31c-.05-.24-.59-.28-.82-.2zM108.9 109.6a3 3 0 01-1.8.65c-.46 0-.58-.08-.66-.19-.69.69.43 1.26 3 .23.19 0 .5.07.34.15a12.88 12.88 0 01-2.88 1.19 6.9 6.9 0 00-2.34.5c-2.42.85-6.26 2.31-9 3.42-.5.19-1.3 1-1.76 1a14.93 14.93 0 01-1.92.15.74.74 0 01-.66-.42h-.88c-.58-.58-1.23-1.77-1.73-1.77h-.46c.65-6.76 7.57-17.13 11.06-21.62v-.62a3.29 3.29 0 013.27 3.57 47 47 0 01-2.64 6.16c-.46.81-1.69 2-2.35 2.88-.34.5-.57 1.5-.88 2-.42.77-1.73 1.42-1.27 2.53 2.62-.8 3.11-.88 3.42-1a5.7 5.7 0 011.42-.23 1.61 1.61 0 011.5.73 8.25 8.25 0 011.92-.8c.54 0 .58.19 1.12.19a31.49 31.49 0 003.8-1c0 .08.19.15.46.19a19.8 19.8 0 00-3.77 1.38l.39.23c1.19-.42 3.61-1.49 5-1.8a3 3 0 011 .58c.58-.23 1.58-.77 1.62-.5.1.56-2.36 1.72-4.32 2.22zm-14-2.62c-.27.7-.73 1.35-.23 1.58l.69-1.46zM105 111a46.26 46.26 0 00-9 3.26v.16l9.53-3.15zm-7.83-7c-.39 0-.54.46-.54.69h.54zm4.92 5.53l.84-.46a1 1 0 00-1.08.15zm7.37-2.27c-.11 0-.42-.15-.31-.19l.77-.23c.42-.12.39.11.19.19zm1 2.88a.39.39 0 01-.54-.11c2.27-1 2.54-1.15 2.84-.92zm1.46-2.76a2.24 2.24 0 00-.58-.35c.16-.11 1.5-.58 1.5-.38s-.67.56-.94.76z"/>
      <path d="M136.91 94.92a4.45 4.45 0 012-.5A5.34 5.34 0 01142 95l-.77.54.07.15a3.4 3.4 0 001.23-.39l1.08 1.16a23.15 23.15 0 00-7.53 6.26c-.23.31-.38-.16-.61 0-.08 1.38-.89 2.11-1.81 3.57-.19.35-.12.85-.35 1.38 0 .23-.57.46-.69.81-1 3-2.26 6-3.49 9.18l-1.73-.81-.23.54c-2.46-.65-2.69-1.61-3-4.18-.11-1 .2-2.73-.07-3.58-.92-2.69 0-3.84-.27-5.8l-.19-1.5a6.93 6.93 0 00-3.54 3.35l.12.61c-1.92 3.61-3.65 8.61-5.38 10.91h-1.08c-1.11 0-1.72-2.57-2.19-2.8l-.23-1.69a3.6 3.6 0 01.43-2.35c2.72-6.6 7.1-10.6 10.14-13.71 1.15.42 4.3 2.38 4.84 3.8a51.32 51.32 0 011.3 5.15c2.62-4.53 6.46-10.18 7.3-10.49l.81-.11a40.74 40.74 0 00-5 6.45c-.34.58-.49.81-.42.85l.23.15a49.76 49.76 0 015.94-7.53zm-15.21 2.69l-.85.88c.46.39.88-.38 1.15-.65zm11.44 12.22l-.34-.23c0-.54.07-1.27.53-1.08zm3-8.92c-.31.47-.93 1.27-.54 1.46l.81-1.22c.11-.15-.16-.35-.23-.24zm-.2-4.07l.66-.84-.31-.16a3.33 3.33 0 00-.65.81c.08.08.19.23.36.19zm1.2 2.73l-.77 1c.23 0 .3 0 .34.19l.69-1c.12-.07-.03-.42-.22-.19zm2.92-3.19l.07.35c.39-.27.73-.31.65-.89z"/>
    </g>
</svg>
