<svg xmlns="http://www.w3.org/2000/svg" viewBox="0 0 668.09 203.35" fill="currentColor">
    <g>
      <path class="cls-1" d="M265.13 138.79a2.7 2.7 0 00-2.17-.43 2.66 2.66 0 00-1.8 1.24 39.5 39.5 0 01-4.73 5.41c-2 1.94-3.85 3-5.59 3.16a2.81 2.81 0 01-2.48-.74c-1.91-1.58-3.11-5.92-3.6-13.05a84.44 84.44 0 011.11-21q8.82-15.78 15.29-28.95 5.08.38 10.43.87 16 1.36 26.46-1.93t12.3-8a2.7 2.7 0 00.07-2.17 2.67 2.67 0 00-1.56-1.49 3 3 0 00-2.23 0 2.87 2.87 0 00-1.63 1.43 3.63 3.63 0 01-1.24 1.36 16.83 16.83 0 01-2.86 1.62 34.38 34.38 0 01-4.53 1.68 48.05 48.05 0 01-6.28 1.36 64.64 64.64 0 01-8.07.68 80.81 80.81 0 01-9.82-.37c-2.9-.25-5.67-.45-8.32-.62q4.47-9.31 7.45-16.9A123.22 123.22 0 00275.51 50a60.72 60.72 0 001.61-7.64 23.32 23.32 0 00.31-4.47 4.46 4.46 0 00-.5-1.81 5 5 0 00-3.72-3.08 6.9 6.9 0 00-5.21 1q-8.7 5.85-19.38 43.86-37.16-1.86-43.87 4.47a2.8 2.8 0 00-.87 2 3 3 0 00.75 2.05 2.87 2.87 0 002.11.87 2.68 2.68 0 002-.75q4.85-4.59 38.26-3-4.1 15.54-6.71 28.2c-.08 0-.12 0-.12.13a101.7 101.7 0 00-1.43 13.85 69.85 69.85 0 001.12 15.4q1.43 7.77 4.66 10.63a8.91 8.91 0 006 2.23h1.12a13.69 13.69 0 005.16-1.92 22.25 22.25 0 004.59-3.73c1.37-1.45 2.38-2.59 3.05-3.42s1.2-1.53 1.61-2.11a2.84 2.84 0 00.37-2.17 2.91 2.91 0 00-1.29-1.8zm6.09-99.94c.33-.17.5-.29.5-.38q1.36 2.49-2.61 13.36t-11.56 26.52c-1.41-.08-2.44-.16-3.1-.24q10.07-34.78 16.77-39.26zm-18.39 45.09h2q-2.12 4.35-4.1 8.2c.65-2.73 1.36-5.46 2.1-8.2z"/>
      <circle class="cls-1" cx="516.88" cy="85.01" r="2.65"/>
      <path class="cls-1" d="M667.22 111.52a2.6 2.6 0 00-2.05-.81 3.08 3.08 0 00-2 .94c-1.66 1.73-3.56 3.54-5.71 5.4s-4.56 3.77-7.21 5.71a52.76 52.76 0 01-7.58 4.73 26.74 26.74 0 01-6.89 2.42 5.45 5.45 0 01-5.16-1.24q-3.11-2.86-2.48-9.2c2.48-1.57 4.88-3.17 7.2-4.78s4.87-3.56 7.64-5.84a33.38 33.38 0 006.52-6.89q2.37-3.48 2-6.22c-.41-2.56-2.28-4.3-5.59-5.21s-6.79.06-10.19 2.91a36.63 36.63 0 00-8.57 10.75 48.11 48.11 0 00-3.66 9.1c-1.55 2.89-7 5.12-11 5.82a44.76 44.76 0 01-11.74.56q-5.78-.5-8.26-2a5.25 5.25 0 00-1.37-1 2.47 2.47 0 00-3.72.74 2.4 2.4 0 00-.62 1.93 3 3 0 00.87 1.8 3.58 3.58 0 001.24 1q3.48 3.84 4.84 19.5a134.13 134.13 0 01-1.36 32.8 53.42 53.42 0 01-4.1 14.29c-1.74 3.56-3.61 5.54-5.59 6a1.21 1.21 0 01-.87-.37q-3.11-3-3.54-17.33a138 138 0 011.3-25.41q1.62-12.06 7.58-37.27 3-4.35 6.58-9.63t10.25-16.09q6.65-10.8 11.43-19.88a129 129 0 007.95-18.26q3.18-9.19 2.05-13.91a8 8 0 00-4.1-5.35 8.22 8.22 0 00-7.57.25q-4.48 2.37-9.14 10.56a121.62 121.62 0 00-8.82 20.38q-4.15 12.18-7.45 24T581.75 112a2.57 2.57 0 00-.13.87q-1.67 7-3.14 14a29.34 29.34 0 01-1.67 3.68 38 38 0 01-2.92 3.36 33.9 33.9 0 01-4.54 4 19.28 19.28 0 01-5.83 2.8 14.71 14.71 0 01-7 .43q-12.67-2.47-14.16-22.73a2.44 2.44 0 00.62-.62q3.1-4.85 7-11.18t11.52-19.56q7.57-13.29 13-24.48a157 157 0 008.82-22.36Q586.72 29 585 23.69a7.85 7.85 0 00-5.09-5.22 1.2 1.2 0 00-.5-.13q-4.85-.73-10.13 3.79a50 50 0 00-10 12.49 144.6 144.6 0 00-8.94 18 193.53 193.53 0 00-7.34 20.7 175.93 175.93 0 00-4.72 20.19 129 129 0 00-1.73 14.78c-2.62 6-7.21 10.16-12.68 14.84s-9.35 6.19-12.08 4.89a.77.77 0 01-.34-.3c-.49-.82-.7-2.41-.62-4.78a58.13 58.13 0 011.8-10.87 131.65 131.65 0 014.29-14.22 3.57 3.57 0 00.08-1.55 2.89 2.89 0 00-.62-1.3 2.52 2.52 0 00-1.24-.87 2.84 2.84 0 00-2.18.12 2.6 2.6 0 00-1.42 1.62q-1.76 4.72-3.11 9.44t-2.61 10.81a35.27 35.27 0 00-.78 8c-.45 2.13-1.12 3.44-2.49 4.43a7.65 7.65 0 01-4 1.62 5.05 5.05 0 01-4-1.62q-1.62-1.6-2.86-14.53-.37-3.86-.56-5.78c-.12-1.28-.37-2.92-.75-4.91a24.67 24.67 0 00-1.18-4.53 13.41 13.41 0 00-1.73-3.05 5.44 5.44 0 00-2.74-2q-4.1-1.6-8.63 4.48t-13.73 23.85q-7.84 14.92-10.57 18.76A68.73 68.73 0 01453 130q1.24-7.14 3.48-16.34 4-6.21 8.39-13.29t11.55-19.57q7.14-12.48 12.11-22.61a126.46 126.46 0 007.77-19.5q2.79-9.39.81-13.23a6.18 6.18 0 00-6-3.36q-4.59 0-9.32 6.09a72.74 72.74 0 00-7.95 13.73q-4.21 9-8.69 21.37t-8.58 26.89c-1.31 4.5-3.45 12.62-3.95 14.55-5.09 12.59-18.27 30.8-19.52 32.12a34.55 34.55 0 01-4.53 4 19.35 19.35 0 01-5.84 2.8 14.84 14.84 0 01-7 .43c-8.45-1.66-13.43-11.69-14.43-25.19a75.61 75.61 0 007.91-9.35c2.8-4.09 6.44-10.76 11.49-19.63s9.38-17 13-24.47a155.93 155.93 0 008.83-22.36q3.4-11.19 1.67-16.53a7.81 7.81 0 00-5.09-5.21 1 1 0 00-.5-.13q-4.84-.75-10.12 3.79a49.81 49.81 0 00-10 12.49 146 146 0 00-8.95 18 192.76 192.76 0 00-7.24 20.71 178.41 178.41 0 00-4.72 20.18 125.92 125.92 0 00-1.79 16.05c-.19 1.69-.08 2-.66 2.57a71.73 71.73 0 01-5.25 4.93q-3.24 2.79-7.21 5.71a52.64 52.64 0 01-7.58 4.72 26.79 26.79 0 01-6.89 2.43c-2.2.41-3.92 0-5.16-1.25q-3.1-2.85-2.48-9.19c2.48-1.57 4.88-3.17 7.2-4.78s4.87-3.56 7.64-5.84a33.5 33.5 0 006.53-6.9q2.35-3.48 2-6.21c-.41-2.57-2.28-4.31-5.59-5.22s-6.79.06-10.18 2.92a36.37 36.37 0 00-8.58 10.75 48.71 48.71 0 00-3.08 7.23 10.11 10.11 0 01-3.09 4.15q-2.55 2.55-8.51 3.55a45.17 45.17 0 01-11.74.56c-3.85-.33-6.6-1-8.26-2a5.15 5.15 0 00-1.36-1 2.47 2.47 0 00-3.73.74 2.39 2.39 0 00-.62 1.93 3 3 0 00.87 1.8 3.67 3.67 0 001.24 1q3.48 3.86 4.84 19.51a133.65 133.65 0 01-1.36 32.8 53.23 53.23 0 01-4.1 14.28q-2.61 5.34-5.59 6a1.2 1.2 0 01-.87-.38q-3.11-3-3.54-17.33a138 138 0 011.3-25.4q1.62-12.06 7.58-37.27 3-4.35 6.58-9.63t10.25-16.09q6.61-10.8 11.43-19.86a130.24 130.24 0 008-18.26q3.17-9.19 2.05-13.92a8.09 8.09 0 00-4.1-5.34 8.21 8.21 0 00-7.58.25Q341.68 36.75 337 45a120.76 120.76 0 00-8.83 20.38q-4.15 12.17-7.45 24t-6.52 25.52a6.46 6.46 0 01-1.12 1.87q-1.25 1.62-3 3.54a60 60 0 01-4.29 4.22 32.33 32.33 0 01-4.9 3.73 20.87 20.87 0 01-4.85 2.17 4.61 4.61 0 01-4.22-.49c-1.08-1-1.35-3.19-.81-6.59a62 62 0 013.54-12.17q2.12-4.47 3.85-8.82a2.37 2.37 0 000-2.11 3.11 3.11 0 00-1.55-1.62 2.51 2.51 0 00-2.11-.06 3.5 3.5 0 00-1.64 1.43v.25a9.05 9.05 0 00-2.86-3 7.34 7.34 0 00-6.33-.62q-4 1.13-9 6.34a53.27 53.27 0 00-8.51 11.92q-3.54 6.72-3.42 11.56.14 6.83 6.22 8.57 7.46 2 15.77-8.2c.09 3.9 1.37 6.59 3.86 8.08a10.42 10.42 0 005.46 1.49 15.72 15.72 0 006.34-1.49 30.41 30.41 0 006-3.48 51.28 51.28 0 004.86-4.25c-.54 2.45-1.07 4.9-1.57 7.35q-1.92 9.45-2.79 14t-1 5.22c-.08.83-.22 2.28-.43 4.35s-.44 5.4-.69 10-.31 8.92-.18 13a64.14 64.14 0 001.49 12q1.31 5.9 3.79 8.39a7 7 0 004.72 1.86h1.24q10.44-1.86 14.41-24.85a118.52 118.52 0 001.87-26.27q-.35-15.33-3.35-24.28a42.59 42.59 0 0015.72.06 29 29 0 0010-3.26 25.34 25.34 0 00.29 3 13.64 13.64 0 004.16 8.14 11.63 11.63 0 007.77 2.73A23.89 23.89 0 00377 136a52.94 52.94 0 0010.56-6.64q5-4 7.7-6.46l.68-.63a50.78 50.78 0 002.12 11.19q4.47 14 16.64 16.33a21.46 21.46 0 004 .38 20 20 0 007.83-1.62 27.81 27.81 0 006.39-3.6 38.79 38.79 0 004.85-4.53 162.68 162.68 0 0010.57-14.78c-1.2 7.47-2.51 16.87-1.88 19.17s1.82 3.47 3.72 3.72h.5q2.86 0 6.15-4.78t10.62-18.95q12.18-23.46 15.55-25.45 1.74 1.61 3 15.15.38 5.22.75 7.83A39.71 39.71 0 00488 128a10.81 10.81 0 002.43 4.6 10.55 10.55 0 008.45 3.23 13.28 13.28 0 006.58-2.36c.72-.49 1.37-1 2-1.51a5.49 5.49 0 001.25 1 10.6 10.6 0 004.84 1.12 18.17 18.17 0 009.07-2.92 43.84 43.84 0 009.44-7.58c1.74-1.8 3.24-3.42 4.54-4.88a51.79 51.79 0 002.17 11.84q4.47 14 16.65 16.34a21.36 21.36 0 004 .37 20.16 20.16 0 007.82-1.61 27.9 27.9 0 006.4-3.61c.72-.56 1.42-1.16 2.11-1.79-.43 2.15-.78 4-1.05 5.4q-.87 4.59-1 5.21c-.08.83-.23 2.28-.43 4.35s-.44 5.41-.69 10-.31 8.93-.18 13a64.14 64.14 0 001.49 12q1.3 5.91 3.79 8.39a7 7 0 004.72 1.86h1.24q10.44-1.86 14.41-24.84a119.22 119.22 0 001.87-26.28q-.37-15.34-3.36-24.29a42.36 42.36 0 0015.72.07 29.17 29.17 0 0010-3.27 25.5 25.5 0 00.29 3 13.64 13.64 0 004.16 8.13 11.58 11.58 0 007.76 2.74 23.9 23.9 0 0010.07-2.61 53.45 53.45 0 0010.56-6.65q5-4 7.7-6.46t4.53-4.41a3 3 0 00.75-2.05 2.82 2.82 0 00-.88-2.01zm-35-4.47a32 32 0 015.78-7.89c2.11-2 4-3 5.65-3a2.45 2.45 0 01.75.12c.91.17 1.37.29 1.37.37q0 1.74-4.48 5.84a107.15 107.15 0 01-11 8.7 37.75 37.75 0 011.89-4.14zm-15.81-70.32a2.54 2.54 0 011.36-.5 2.08 2.08 0 01.87.25 2 2 0 011 1.49q1.11 4.23-3.17 14.66a182.68 182.68 0 01-10.81 21.75q-6.52 11.3-14.47 23.72 14.53-55.77 25.22-61.37zM544 94.38a166.21 166.21 0 016.52-25.6 180.48 180.48 0 019.26-22.73 90.15 90.15 0 019.81-15.9q5-6.21 8.45-6.21h.25a2.75 2.75 0 011.24 1.61q1.74 5.34-4 20A276 276 0 01561.13 76q-8.58 15.78-18.76 31.93A115.33 115.33 0 01544 94.38zm-140.71 2.87a166.45 166.45 0 016.53-25.59 179.93 179.93 0 019.25-22.73A90 90 0 01428.89 33q5-6.21 8.44-6.21h.25a2.79 2.79 0 011.25 1.62q1.73 5.34-4 20a277 277 0 01-14.35 30.44q-8.58 15.78-18.76 31.92a120 120 0 011.57-13.52zm-38.63 12.68a31.71 31.71 0 015.77-7.89c2.12-2 4-3.05 5.66-3.05a2.4 2.4 0 01.74.13c.91.16 1.37.29 1.37.37q0 1.74-4.47 5.84a109.89 109.89 0 01-11.06 8.7 36.05 36.05 0 011.99-4.1zm-15.78-70.32a2.54 2.54 0 011.37-.5 2.12 2.12 0 01.87.25 2.07 2.07 0 011 1.49q1.13 4.23-3.17 14.66a181.84 181.84 0 01-10.81 21.74q-6.52 11.31-14.48 23.75 14.54-55.81 25.22-61.39zm-59 67.71c-.25.58-.46 1.07-.62 1.49a85.85 85.85 0 01-9.75 15.46q-5 6.15-8.64 5.16a2.78 2.78 0 01-2-3q-.12-5.6 6-14.29t10.74-10.06a3.46 3.46 0 01.87-.13c1.93.17 3.98 3.05 3.39 5.37zM473.6 57.11q6.78-17.52 12.86-25.35 3-4 4.6-4a1.8 1.8 0 011 .37q1.5 2.86-2.42 13.23a209.48 209.48 0 01-11.37 24.29q-7.45 13.92-17.14 29.69 5.71-20.71 12.47-38.23z"/>
      <path id="wheat" class="cls-1" d="M145.79 36.07v-3.44a2.75 2.75 0 00-2.74-2.75h-3.45a22.79 22.79 0 00-19.16 10.42 20.42 20.42 0 00-4.17-6l-3.62-3.62a2.75 2.75 0 00-3.88 0l-3.63 3.62a20.39 20.39 0 00-6 14.49 20.72 20.72 0 00.42 4.21c-.3-.34-.61-.68-.93-1L95 48.33a2.73 2.73 0 00-3.88 0L87.5 52a20.39 20.39 0 00-6 14.49 20.72 20.72 0 00.42 4.15c-.3-.34-.61-.68-.93-1L77.37 66a2.75 2.75 0 00-3.88 0l-3.62 3.62a20.48 20.48 0 000 29l1.68 1.69-18.64 18.58a2.74 2.74 0 103.88 3.88l18.64-18.64 1.68 1.68a20.5 20.5 0 0029 0l3.62-3.62a2.75 2.75 0 000-3.88l-3.62-3.62c-.33-.33-.66-.64-1-.93a20.57 20.57 0 004.15.41 20.3 20.3 0 0014.48-6l3.63-3.62a2.75 2.75 0 000-3.88L123.72 77q-.48-.48-1-.93a20.55 20.55 0 004.14.42 20.3 20.3 0 0014.49-6l3.65-3.58a2.75 2.75 0 000-3.91l-3.63-3.63a20.58 20.58 0 00-6-4.16 22.77 22.77 0 0010.42-19.17zM109 38.19l1.69-1.68 1.68 1.69a15 15 0 010 21.19l-1.68 1.68L109 59.4a15 15 0 010-21.2zm-4.81 24.1c.3.34.61.67.93 1l7.25 7.24c.32.33.65.63 1 .93a20.72 20.72 0 00-9.43.27 20.76 20.76 0 00.26-9.44zm-12.8-6.46l1.68-1.68 1.68 1.68a15 15 0 010 21.2l-1.68 1.69L91.38 77a15 15 0 010-21.2zm-4.82 24.1q.45.51.93 1l7.25 7.25q.48.48 1 .93a20.59 20.59 0 00-9.43.27 20.9 20.9 0 00.27-9.44zm-9.46 14.75l-1.68 1.69-1.68-1.69a15 15 0 010-21.2l1.68-1.68 1.68 1.68a15 15 0 010 21.2zm25.09 7.25a15 15 0 01-21.21 0l-1.68-1.68L81 98.56a15 15 0 0121.2 0l1.68 1.69zm17.64-17.64a15 15 0 01-21.21 0L97 82.61l1.68-1.68a15 15 0 0121.2 0l1.68 1.68zm17.64-21l1.68 1.71-1.68 1.68a15 15 0 01-21.21 0L114.59 65l1.68-1.69a15 15 0 0121.2 0zM123 53.4h-.7v-.7a17.33 17.33 0 0117.31-17.33h.72v.7A17.33 17.33 0 01123 53.4z"/>
      <path class="cls-1" d="M99 0a99 99 0 1099 99A99.06 99.06 0 0099 0zm26.38 185.06c1.21-16.52 5.43-15.07 16-21.65 11.77-7.35 10.2-8.28 14.29-10.84s11.37-22 12-26 .15-5.7 0-16.37.61-10.78-3.77-11.84-5.67 18.84-5.29 21 2.89 4.7 2.89 4.7 1.68.65-2.73 8.37-9.55 12.14-10.4 11.84 9.6-13.4 11.37-16.33a3.78 3.78 0 00-.5-4.9s-4.78-4.71-14 6.7-15.84 13-25.37 14.31-15.52 11.06-18.7 17.35c-2.54 5-2.27 21.34-2.06 27.65H96.1c.21-6.35.48-22.59-2.06-27.6-3.23-6.38-9.21-16.15-18.74-17.45s-16.21-2.9-25.38-14.3S36 123 36 123a3.79 3.79 0 00-.49 4.9c1.76 2.93 12.21 16 11.36 16.33s-6-4.12-10.39-11.84S33.7 124 33.7 124s2.5-2.55 2.89-4.7-.91-22-5.29-21-3.62 1.18-3.77 11.84-.61 12.38 0 16.37 7.89 23.47 12 26 2.47 3.55 14.27 10.9c10.35 6.46 14.61 5.18 15.91 20.72a90.06 90.06 0 1155.62.93z"/>
    </g>
</svg>
