<svg xmlns="http://www.w3.org/2000/svg" width="111.996" height="110.968" viewBox="0 0 111.996 110.968">
  <defs>
    <style>.a{fill:none;}.b{fill:#0e9f6e;}</style>
  </defs>
  <g transform="translate(-1199.313 -721.262)">
    <g transform="translate(1199.313 721.262)">
      <g transform="translate(0 0)">
        <path class="a" d="M56,0c30.926,0,56,24.841,56,55.484s-25.072,55.484-56,55.484S0,86.127,0,55.484,25.071,0,56,0Z"
              transform="translate(0 0)"/>
        <path class="b"
              d="M56,4.22c-28.551,0-51.778,23-51.778,51.265S27.447,106.749,56,106.749s51.778-23,51.778-51.265S84.549,4.22,56,4.22M56,0c30.927,0,56,24.841,56,55.484s-25.071,55.484-56,55.484S0,86.127,0,55.484,25.071,0,56,0Z"
              transform="translate(0 0)"/>
        <g transform="translate(16.615 57.01)">
          <path class="b"
                d="M-157.745,1316.37s.68-13.317-1.092-16.817-5.105-8.946-10.417-9.662-9.027-1.623-14.141-7.978-7.778-3.733-7.778-3.733a2.109,2.109,0,0,0-.273,2.73c.981,1.637,6.808,8.928,6.333,9.1s-3.332-2.294-5.793-6.594-1.524-4.666-1.524-4.666a6.629,6.629,0,0,0,1.609-2.616c.215-1.2-.5-12.289-2.946-11.7s-2.02.659-2.1,6.6-.338,6.9,0,9.121,4.4,13.074,6.676,14.5,1.4,1.946,7.961,6.039,8.732,2.6,9.073,15.673C-171.862,1316.387-157.745,1316.37-157.745,1316.37Z"
                transform="translate(196.037 -1264.415)"/>
          <path class="b"
                d="M-195.91,1316.37s-.68-13.317,1.092-16.817,5.105-8.946,10.417-9.662,9.027-1.623,14.141-7.978,7.778-3.733,7.778-3.733a2.11,2.11,0,0,1,.274,2.73c-.981,1.637-6.808,8.928-6.333,9.1s3.332-2.294,5.793-6.594,1.524-4.666,1.524-4.666a6.628,6.628,0,0,1-1.609-2.616c-.215-1.2.5-12.289,2.946-11.7s2.02.659,2.1,6.6.338,6.9,0,9.121-4.4,13.074-6.676,14.5-1.4,1.946-7.961,6.039-8.732,2.6-9.073,15.673C-181.793,1316.387-195.91,1316.37-195.91,1316.37Z"
                transform="translate(235.992 -1264.415)"/>
        </g>
      </g>
    </g>
    <path class="b"
          d="M50.842,3.359V1.489A1.491,1.491,0,0,0,49.352,0h-1.87a12.361,12.361,0,0,0-10.4,5.654A11.112,11.112,0,0,0,34.822,2.4L32.857.436a1.491,1.491,0,0,0-2.106,0L28.783,2.4a11.042,11.042,0,0,0-3.256,7.862,11.23,11.23,0,0,0,.227,2.25q-.243-.277-.5-.539l-1.966-1.967a1.491,1.491,0,0,0-2.106,0l-1.966,1.966a11.042,11.042,0,0,0-3.257,7.862,11.231,11.231,0,0,0,.227,2.25q-.243-.277-.5-.539l-1.966-1.967a1.489,1.489,0,0,0-2.106,0L9.638,21.548a11.116,11.116,0,0,0,0,15.724l.913.913L.436,48.3a1.489,1.489,0,1,0,2.106,2.106L12.657,40.291l.913.913a11.119,11.119,0,0,0,15.725,0l1.966-1.966a1.489,1.489,0,0,0,0-2.106l-1.967-1.968q-.262-.262-.539-.5a11.224,11.224,0,0,0,2.25.227h0a11.048,11.048,0,0,0,7.862-3.256l1.966-1.966a1.491,1.491,0,0,0,0-2.106l-1.967-1.967q-.262-.262-.539-.5a11.224,11.224,0,0,0,2.25.227h0a11.048,11.048,0,0,0,7.862-3.256l1.966-1.966a1.491,1.491,0,0,0,0-2.106L48.44,16.019a11.122,11.122,0,0,0-3.252-2.261,12.356,12.356,0,0,0,5.654-10.4ZM30.889,4.509,31.8,3.6l.914.913a8.133,8.133,0,0,1,0,11.511l-.912.913-.913-.913a8.137,8.137,0,0,1,0-11.51ZM28.279,17.587q.242.276.5.539l3.933,3.933q.262.262.539.5a11.239,11.239,0,0,0-5.121.146,11.242,11.242,0,0,0,.146-5.122Zm-6.962-3.506.913-.913.913.913a8.133,8.133,0,0,1,0,11.511l-.912.913-.913-.913a8.137,8.137,0,0,1,0-11.51ZM18.707,27.16q.242.276.5.539l3.932,3.933q.262.262.539.5a11.24,11.24,0,0,0-5.122.146,11.24,11.24,0,0,0,.147-5.122Zm-5.138,8.005-.912.913-.913-.914a8.137,8.137,0,0,1,0-11.51l.913-.913.913.913a8.133,8.133,0,0,1,0,11.511ZM27.188,39.1a8.141,8.141,0,0,1-11.511,0l-.913-.914.913-.913a8.136,8.136,0,0,1,11.511,0l.913.913Zm9.573-9.573a8.138,8.138,0,0,1-11.511,0l-.913-.914.913-.913a8.136,8.136,0,0,1,11.511,0l.913.913Zm9.571-11.4.913.913-.913.913a8.138,8.138,0,0,1-11.511,0l-.912-.913.913-.913a8.136,8.136,0,0,1,11.51,0Zm-7.873-5.363h-.379v-.38a9.4,9.4,0,0,1,9.4-9.4h.38v.38a9.4,9.4,0,0,1-9.4,9.4Z"
          transform="translate(1229.784 739.933)"/>
  </g>
</svg>
