<svg xmlns="http://www.w3.org/2000/svg" viewBox="0 0 278.14 262.97" fill="currentColor">
    <g>
      <path d="M92.42,23.59l-1,2.75c3.43-.67,7.52-2.15,9.75-2.82,1,2,3.43,3.35,3.43,4.91,0,2-6.78,2.6-18.09,6.47L87,36.39l-1.27.22a2,2,0,0,1-.07,2.24c-1,2.15-2.23,4.91-3.35,7.44-.89-.6.82-2.61-.07-3.13l-3.72,8.56-.45-.45a59.74,59.74,0,0,0,2.08-6c-1.11-.45-1.71,4.46-3.42,4.61a7,7,0,0,0,.45-4.09,14,14,0,0,0,3-7.07c-.89.22-1.19,1.41-1.71,2.83l-.59-.38,1.33-3.64c-5,.44-9.52,3.64-9.74,9.67-1.12,0-.9.82-.52,1.41a38.51,38.51,0,0,0-4.4,8.34A3.85,3.85,0,0,1,63,55.59l1-2.46-.89-.59L61.69,54c.37-2.09,2.23-4,1.11-5.51A56.14,56.14,0,0,0,65.18,43l-6.62,3.13A4,4,0,0,1,60.05,44c.15-.59.3-.89.45-1.49,1.93-1,6.1-2,6.25-3.79l-5.88,2.68c.67-1.49,5.06-3.65,8-5,.15-.6-.3-.89-.89-.89.52-1.57,1.11-3,1.56-4.47l-8.71,2.68V32.59l.9-.74c0-2.31.44-2.08,2.08-3.5l-.52-.67c2.31-1.34,5.73-3.27,9.23-5.13C76.87,10.72,81.85,0,85.5,0a6.38,6.38,0,0,1,2.9,1.12c0,2.23,1.94,1.63,1.94,3.2,0,2.75-5.21,5.28-6,9.37-1.63.9-2.82,2.83-3.64,5.81,2.75-1.19,5.21-3.05,8.11-4l-.67-.6c1.79-4.09,5-11.53,7.22-11.53,1.26,0,3.79,3.72,5.21,4.91a8.63,8.63,0,0,1-2.68,3.13l-1,2.75,3.42-.37c1.93-.23,3.94,2.08,5.65,4v1.63C100.31,21.13,96,21.43,92.42,23.59ZM64.29,29.1l-1.49,1V31l1.94-1.34Zm-.37,8,2.9-1.34c0,.38-.82,1.42-3.64,2.46Zm0,22.33-.67-.3.22-1.86.75.52Zm.22-10.94a9.58,9.58,0,0,1-.37,2.75l.74.23.67-3ZM81,30.06V30a4.29,4.29,0,0,0,2.53-4.76A20.15,20.15,0,0,0,76.87,28c-1.34,2.46-2.09,3.5-1.64,4.32l3.13-1.12c.74-.3,1.41-.52,2-.82.67,1.12,2,.37,2.67-.74Zm-.15,20-.44-.52c.44-1.12.59-2,1.48-1.86Z"/><path d="M194.89,13.54c-3.72,3.43-9.75,9.68-12.43,12.21l-1.12-1c.75,3-1.93,5.14-3.87,8-.74-.37.08-1.34.67-2.31-.82-.59-1.64.67-2.45,1.94s-1.42,2.15-.82,3.12c-3.2,3.57-9.3,12.43-12,12.43-1,0-1.57-3.2-3.13-4.54l-.45.52-2.08-3c-1-1.41-2.38-6.1-4-8C149.42,37.58,142.94,48.3,142,48.3c-.81,0-2.6-2.83-3.27-2.83a.65.65,0,0,0-.67.37c-2.83-3.27-3.87-9.08-4.09-16-.3-7.66.44-16.52.74-24.18l1-.75c3.5,1.71,5.95,8,6.7,11.31,1.19,5.51-3.72,14.37-.9,16.52L152,18.31l1.71-.6,4-5.88c.82-1.26.67-4.16,2.08-4.16,1.56,0,3.57,1.93,4.17,3.94l1.86,6.4c-2.61,3.5-4.09,8.48-6.7,11.53,1.56.15,2.68,2.24,3.87,2.24,2,0,17.19-23.89,25.3-25.08a23.17,23.17,0,0,1,3.35-.3c-.67.67-1.26,1.41-.37,1.71l3.35-2.6a2.32,2.32,0,0,1,1.49,1.41l3.12.52A7,7,0,0,1,197,9.82l.6.23c1.56,0,3.5-3.65,5.13-1.72C200.32,10.34,198,13.62,194.89,13.54Zm-39.82,3.95.82-.15c.74-1,1.56-2.16,1.12-2.9Zm24,10.57-1,1.34.44.44.9-1.41Zm.37-.82.44.52c.45-.67.75-1,.23-1.49Zm5.8-5.73c-2.16-1.12-2.53,1.56-2.68,2.45h.08ZM190,14.88l.15.75c2-1.56,3.8-2.61,3.95-4Zm4.62-3.49.15.67c.74-.52,1.41-.6,1.34-1.72Z"/><path d="M219.88,13.32h-.82c-2,2.83-3.2,8-6.62,9.9l.3.89-2.9,1.64c-2.91,4.17-4.17,9.3-5.81,13.54-.22.6-1.19,1.79-.22,2.09.22.07.74-1.49.82-1.71,1.71-3.88,3-9.68,5.65-12.73,1-.37.3.52.15.74-2.6,4.39-3.87,9.45-6,14.66-1.48,3.5-2,6.7-1.63,8.19A21.52,21.52,0,0,1,199,48.89V46.51a2.39,2.39,0,0,0-.81,1.79,11.76,11.76,0,0,1-4.1-5.58c0-13.4,13.85-31.71,19.2-41.53a3.07,3.07,0,0,1,2.24-1,9.43,9.43,0,0,1,2.3.52V2.46a4.49,4.49,0,0,1,2.68,3.94A46.45,46.45,0,0,1,219.88,13.32ZM202.47,43l-.82,2c-.07.23.15,1,.6.23l1-2.61C202.25,41.6,202.54,42.79,202.47,43Z"/><path d="M254,20c-3.2,2-2,3-5.81,5.21-1.11-1.56-3.27-.3-5.51,1.78,7.07,6.48,14.89,17.05,22.11,17.05a35.6,35.6,0,0,0,8.85-1.49,6.22,6.22,0,0,1,2.61,1.86,43.21,43.21,0,0,0-4.17,1.26l.15.15c1,0,2.45.15,2,.45A28.63,28.63,0,0,1,268,49.41c-.59.23.3.6.67.52,3.05-1,6-3.2,8.34-4.76a4.47,4.47,0,0,1,.74,1c-3.94,3.65-11,7.37-16.59,7.37-2.83-1-6-2.31-8-4.25-3.64-3.57-13.62-17.78-18.08-20.09a62.66,62.66,0,0,0-6,11.54c-.45,1,1,2.9.6,4.31-.45,1.64-2.46,2.83-4.1,4.47a4.73,4.73,0,0,1-3.94-2.76l-1.12-3c1.79-1.19-.67-.52-.67-1.93,0-3.87,12.21-30.66,19.5-41.6,6.1,0,4.09,5.21,5.21,7.52,2.31-1,5.28-2.16,7.89-2.16a15.11,15.11,0,0,1,4.24.52l-.52,1.19c1,.3,2.23.3,2.23-.67l1.42.59a2.52,2.52,0,0,1-.6,1c.6.44,1.27.44,1.41-.38,1.49,1.42,2.09,2.46,2.09,4.17a3.84,3.84,0,0,1-1,2.61c-2,1.78-4.09,3.87-6.85,6.25ZM230.15,35,228,38.92l.37.89,2.16-4.24Zm15.18-8.26-.45-.67c.82-.6,2.09-1.05,2.46-.3Zm7.59-20,2.38.37.37-.52A4.2,4.2,0,0,0,252.92,6.7Zm10.72,43.83c-1.05-.3-1.79.45-.08,1a26.84,26.84,0,0,0,4.17-1.12v-.07c-.37,0-.52-.38-.75-.52Z"/><path d="M44.43,115.41c.07.82-.23,1.49-1.42,1.79l-4.54,1.19c.67.82,2.46.52,4.54,0l-.37.89c-5.21,1.64-12.13,4.39-16.3,4.76l-8.63.82c-1.86.75-3.2,2.46-4.46,4.62l.44.67c-1.26,2.45-3.35,6.84-4.54,9.37l-.59-.37c-.52.75.07,1.64.07,2.53a7.68,7.68,0,0,1-1.19,3l-2.75.89c-1,.37-1.64-.44-2.16-1.26l-.6.52C1,143.92.67,143,1.19,142.43A7.81,7.81,0,0,1,0,139.6c1.19-2.38,2.46-5.81,3.42-8,1.12-2.39.75-4.17-1.19-5.36l-.59-3.57a3.53,3.53,0,0,0,2.08-2.53L8,118.91l-.45-.74c2.16-.52,1.41-2.46,2.46-5.06L17,95.84c.89-2.16,2.15-4.69,4.39-6l4.17-2.31c5.13,0,12.2,6,12.2,13.17A8.81,8.81,0,0,1,36.17,106c-1.05-.15-1.86-1-2.68-1.26a8.36,8.36,0,0,0-2.09-5.44c-4.39,1.79-7.14,9.6-11,16,.67.67,2.31-.29,3.8.6l-2.31.52.67.52c2.23-.3,5.36-.82,7.51-1.11.38-.08,1.19.67.45.89-.52.15-1,.44-1,1l5.88-1.12,1.34.82,2.08-.44a1.44,1.44,0,0,0,1.34-.9Zm-40,12.13.38,1.94c.37-.37.59-.67.59-1S5.13,127.92,4.46,127.54Zm3.65,9.6-.52,1,.52.53,1.19-2.16A1.57,1.57,0,0,0,8.11,137.14Zm3.28-9.37a3.51,3.51,0,0,0-1.64,1.78,2.16,2.16,0,0,0,.22,1.79Zm2.67-1.27c-.44.08-2.3,1-2.3,1.86,0,.37.44.67.82.67Zm16.15-6.1c-.89.3-1.86.15-2.08.52-.15.22-.22.74,0,.67l2.08-.52C30.51,121,30.36,120.32,30.21,120.4Zm5.21-1.34c-2.23.15-2.9.82-4.31,1.19-.23.07-.23.67,0,.6,2.3-.6,3.72-.9,4.09-.6l2.23-.67C36.91,119,36.32,119,35.42,119.06Z"/><path d="M89.89,104.92c-1.49-.15-3.57,1-1.78,2.16.52.3-.08,1.41-1,1.34l-1-.52c-1,1.78-2.16,4.16-1.19,4.24l-.82,1.56c-1.42-.07-1.57,1.94-6.18,7.59l.6.75a79.58,79.58,0,0,0,5.13-7.37,1.61,1.61,0,0,1,.15,1.79C73.37,135.65,58,137.89,53.73,137.89c-.53,0-.53-.23-.6-.38s0-.37-.52-.37-.45.15-.45.37.15.38-.37.38c-2.08,0-3-2-4.09-3.28l-.82.37c-3-1.78-4.32-5.2-4.32-8.7a21.78,21.78,0,0,1,2-8.86c3.43-7.44,9-20.84,11.76-27.09a3.69,3.69,0,0,1,2.31-1c1.63.08,3.94,6.1,4.54,7.67l1-.75v1.71c-2.16,4-5.29,10.42-7.22,14.66a1.78,1.78,0,0,1-.08-2c.75-.23-.29-1-.59-.6-1.79,2.6.07,3.94-.67,5.51-.3.67-.67,1.41-1,2.3-.67-.29-1.42.53-1.79,1.27a1.33,1.33,0,0,0,1.34-.3h.08c-.52,1.12-1.12,2.53-1.57,3.57-.29-.44-.37-1,.15-2.15l-.44-.45a9.15,9.15,0,0,0-1.34,3.35c0,.52.29.82,1,.89-.29.74-.59,1.49-.81,2.08,15.18,0,22-11.31,28.05-24,.22-.67,1.41-.3,2.08-.74s.38-1-.81-.89a75.29,75.29,0,0,0,3-8.12c.15-.67.6-.81,1.19-.81s1,.59,1.64,1.11a8.23,8.23,0,0,0,2.16,1.19,12.25,12.25,0,0,1,.59,3.8c.08,1.78.3,3.42,1.86,3.57Zm-31.4,30.36c-1-1.71-3.65-1.11-2.9-.22a1.33,1.33,0,0,0,1.19.45A12.53,12.53,0,0,0,58.49,135.28ZM57,108.19c-.08.15-.22.45-.15.52l1,.6c.52-.74,1.78-3.42,1-4.17Zm6.77,24.86c-1.26.45-3.05.22-2.9,1.93a17.3,17.3,0,0,0,4.32-1.56C65,132.9,64.29,132.9,63.77,133.05Zm2.23-.89.15.74a33.69,33.69,0,0,0,5.51-3.5C69.87,129.33,68.61,130.74,66,132.16Zm3.28-42.27-1.12-.6.52-2.23a13.69,13.69,0,0,1-1.63-6.85,1.58,1.58,0,0,1-.9-1.48c0-2,2.46-4.1,4.39-4.1,3,0,5.29,3.28,5.29,8.56Zm8,32.07c-1.12,1.12-2.08,2.08-1.34,3.05l2.09-2.3Zm8-33.49a4.21,4.21,0,0,1-3.94-5.28H80.14c.08-1,2.24-8.56,5.88-8.56,3.35,0,5.73,2.31,5.73,7.22C89.07,83.41,88,86.69,85.2,88.47Z"/><path d="M124,109.31c-3.2,2-2,3-5.8,5.21-1.12-1.56-3.27-.3-5.51,1.79,7.07,6.47,14.89,17,22.1,17a35.14,35.14,0,0,0,8.86-1.49,6.22,6.22,0,0,1,2.6,1.86c-1.41.37-2.75.74-4.16,1.26l.15.15c1,0,2.45.15,2,.45a29.24,29.24,0,0,1-6.33,3.13c-.59.22.3.59.67.52,3.05-1,6-3.2,8.33-4.77a4.23,4.23,0,0,1,.75,1c-4,3.65-11,7.37-16.6,7.37-2.82-1-6-2.31-8-4.24-3.65-3.58-13.62-17.79-18.08-20.1A63,63,0,0,0,99,130c-.45,1,1,2.9.6,4.31-.45,1.64-2.46,2.83-4.1,4.47A4.72,4.72,0,0,1,91.6,136L90.48,133c1.79-1.2-.67-.53-.67-1.94,0-3.87,12.21-30.66,19.5-41.6,6.1,0,4.09,5.21,5.21,7.52,2.31-1,5.28-2.16,7.89-2.16a15.16,15.16,0,0,1,4.24.52l-.52,1.19c1,.3,2.23.3,2.23-.67l1.41.6a2.42,2.42,0,0,1-.59,1c.59.44,1.26.44,1.41-.37,1.49,1.41,2.09,2.45,2.09,4.16a3.89,3.89,0,0,1-1,2.61c-2,1.78-4.09,3.87-6.85,6.25Zm-23.88,15L98,128.21l.37.9,2.16-4.25ZM115.34,116l-.45-.67c.82-.6,2.08-1,2.46-.3Zm7.59-20,2.38.37.37-.52A4.2,4.2,0,0,0,122.93,96Zm10.71,43.83c-1-.3-1.78.45-.07,1a25.77,25.77,0,0,0,4.17-1.12v-.07c-.37,0-.52-.37-.75-.52Z"/><path d="M200.54,114.67a2.84,2.84,0,0,1-2,.82l1.11-1.19a1.7,1.7,0,0,0-1.63.37c-.45.45-1.64,1.41-3.13,2.6l1.34.3a112.48,112.48,0,0,1-26.71,17l-.67,4.09c-1.42-.74-2.53,0-4.1,0-4.54,0-6-5-7.66-7.14a10.35,10.35,0,0,0,.59-2.83l1.86-.82a4,4,0,0,0,2.31-2.23,60.38,60.38,0,0,0,2.61-8.41l-.3-1.12c1-3.35,3.35-5.88,3.5-8.78.07-2.08-2.68-3.42-2.61-5.28s3.72-2.9,5.66-4l.74.52c3.5-3.79,3.72-11.46,7.67-11.46.67,0,3.34,4.4,3.72,5.36.29,1.19-.38,2.61-.67,4.17,2.53,0,5.28-.74,9.08-.22-.75,1.41,1.48,1,1.93,0,.74.59,2.83.37,4.46.89,6.85,2.08,7.22,7.81,7.6,11A40.23,40.23,0,0,1,200.54,114.67ZM169.8,132.6l-.15.75,2.09-1.12.37-.89Zm6.63-24.11-.08,2.31c-.3.37-.89.59-1.34,1.12V112c1.19-1,1,2.38.37,2.38a2.13,2.13,0,0,1-1-.45V114a3.74,3.74,0,0,1,.52,1.56c-.08,1.71-1.56,3.8-1.94,6.62,2.68-1.63,8.71-4,12.43-7.21.3.29.6.29,1.12.44l-.45-1,.67-.45c.3.53.6.6.74.6.75,0,2.16-1.19,4.77-4.24,1.93.67,5.8-4.32,5.35-7.07C185.06,103.21,180.44,107.23,176.43,108.49ZM173,131.71l3.8-1.86a.9.9,0,0,1-.15-1.27v-.07a16.83,16.83,0,0,0-3.65,3.13Zm18-11c-1.34,0-2.53.74-4,1.71s-4.24,2.53-6.62,4a1.74,1.74,0,0,1-.82,1.26c-.52-.52-1.34-.3-2.16.45a4.11,4.11,0,0,1,1.72.52c4.24-2.61,8.48-5.73,11.9-7.89Zm2.09-2.24-2.46,1.34a1.22,1.22,0,0,0,1.56,0l1.57-1.11Zm6.84-5.8-.59.67,1,.22.6-.67Z"/><path d="M232.08,102.61h-.81c-2,2.83-3.2,8-6.63,9.9l.3.89L222,115c-2.9,4.17-4.17,9.3-5.81,13.54-.22.6-1.19,1.79-.22,2.09.22.07.75-1.49.82-1.71,1.71-3.87,3-9.68,5.66-12.73,1-.37.29.52.14.75-2.6,4.39-3.87,9.45-6,14.66-1.49,3.49-2,6.69-1.64,8.18a20.38,20.38,0,0,1-3.72-1.64V135.8a2.39,2.39,0,0,0-.82,1.79,11.68,11.68,0,0,1-4.09-5.58c0-13.4,13.84-31.7,19.2-41.53a3,3,0,0,1,2.23-1,9.51,9.51,0,0,1,2.31.52v1.79a4.5,4.5,0,0,1,2.67,3.94A45.16,45.16,0,0,1,232.08,102.61Zm-17.41,29.7-.82,2c-.07.23.15,1,.6.23l1-2.61C214.45,130.89,214.75,132.08,214.67,132.31Z"/><path d="M271.37,101.65c-6.77,3-13.69,3.27-20.24,5.13-.82,1.34-1.86,3-3.12,5.06,3-.3,9.15-2.83,11.31-2.83s2.83.75,4.39,3.43a1.5,1.5,0,0,0,.82,1.93L264,116c-4.54.74-15.63,2.53-19.35,4.17-1.94.81-3.65,9-3.72,10.71,2.3,1.71,5.8,1,8,.45l.45.74c.52,0,1.19-.44,1.19-.89,1.11-.15,1.49,1.64,2.53,1.34,4.83-1.34,10.56-3.28,14.29-4.47.22-.07.52-.14.59.08.15.37-1,.89-1.56,1.19l-5.06,1.86c.44.3,1.26.82,1.78,1.12.23.07.08.22-.15.29-3.72,1.27-8.33,2.53-12.5,3.57a6.47,6.47,0,0,0,4.17.15c3-.81,7.07-2.23,10.72-3.49.22-.08.74-.3.37.44a3.63,3.63,0,0,1-2.09,1.64C258.8,136.77,252.55,139,248,139c-8.71,0-14.89-3.94-14.59-14.81.15-5.5,4.69-12.27,10.12-23.66a7,7,0,0,1,1-5.66c3.72.45,5.88-5.28,8.49-5.28A36.9,36.9,0,0,1,259.39,91a10.32,10.32,0,0,1-1.34,5.36,42,42,0,0,0,6.48.67l.67,1.42a11.22,11.22,0,0,1,1.86-.45c.82,0,2.6.74,3.64.89.15,0,.3.15.15.3-3,2.68-5.06,1-4.54,3.27,2.24-.89,4.1-1.41,6.18-2.38.3-.15.74-.67.82-.22C273.46,100.6,272.12,101.05,271.37,101.65Zm-31.47,26c-.3,1.34-.38,2.3.22,2.75l.37-2Zm1.19-4.24-.82,2.75.52.67,1-3.5Zm.14-.53h.08a8.85,8.85,0,0,0,1.34-1.93c-1-.07-1.27.37-1.42,1.12Zm4.25-10.79,1-.14.75-1.72C246.67,110.2,245.7,111.25,245.48,112.06Zm3.42-5-1.27,2.08,1-.22,1.27-2.09Zm9.67,22.32c-2.08,1.57-4.68,2.61-5.58,1.19a60.72,60.72,0,0,0,9.6-3c.3-.15.37.07.23.3A5.72,5.72,0,0,1,258.57,129.4Zm7-30.06.22.89,1.34-.59C267.06,99.26,266,99.19,265.57,99.34Z"/><path d="M33,185.06c4.91-1,10.42-2.23,13.84-2.68,3.2.82,5.81,2.16,6.78,4.84-1.27,1.11-.6,3.05.07,4.16a5.37,5.37,0,0,1-1.19.53l-.15-.45a2.57,2.57,0,0,0-1-.3.5.5,0,0,0-.52.52,1.33,1.33,0,0,0,.15.6c-4.47.89-11,.3-17.19,3h-1v-.81a1.76,1.76,0,0,0-1.63.89c-2.53.3-3.35,1.26-4.91,5.95a5.94,5.94,0,0,1-1.57,1.94l.67.37c-.37,1.56-1.49,4.54-2.23,4.46s-.07-1.56-.52-1.48c-.82.14-.89,1.78-1.27,3a5.41,5.41,0,0,1,.45,2.16c-.37,1-.74,2.6-1.27,2.6-.74,0-.29-1.41-.59-2-.67,1.42-1.19,2.76-1.71,4l.59.38c.37-.67.75-.9,1.42-.75A108.32,108.32,0,0,0,16.67,227a16.09,16.09,0,0,1-4.84-.37l.3-.82c-1.93-.67-1.79-3.2-2.08-6.1a2.85,2.85,0,0,1-.6-1.57c0-1.86,4.24-12.87,8-21.35h-5.8c-3.28,0-3.5,1-5.88.44A16,16,0,0,1,3.27,190a3.3,3.3,0,0,1,1.05-2.45c2.9.3,9.82.59,14.36-.3,7.52-1.56,4.24-8.63,11.16-8.63Zm-9.37,19.35-.75,1.34.45.52.59-1.34Z"/><path d="M77.83,211.77c-.59,1.27-.37,4.54-1.93,6,1,.6.45,2.46-.52,3.35.45,1.12.74,1.94-.82,4-.07.3.67-.08.82-.22a24.74,24.74,0,0,1-1.49,6.77c-2.31,0-4.39-2.23-5.58-1.79.07-1.49-.15-2.08-1.19-2.08l.07-1c.38,0,.67-.23.75-.75a.65.65,0,0,1-.67-.74c.15-1.71,1-3.87,1.49-6.1.52,0,.52,1,.44,2.08.52,0,1.34-3.05,1.49-4.76l-.89-.37c-.08,1.19-.08,2.82-1,2.45.22-1,.45-3.65.67-4.54l1.27,1.56c-.08-.89.29-1.11.14-2.23-4.24-.15-15.47,5.88-18.82,8.19l-.38,1,.3.9c-1.26,2.6-2.38,5.65-3.57,7.22l-4.69-2c-.22-2.31-3.42-3.28-2.6-5.21H40C41.59,212.22,54,200.17,61,190.79a54.81,54.81,0,0,1,9.89-10c.53-.44,2.61.3,2.76-1.11a15.24,15.24,0,0,1,4.16,2.08l-1.33.45c-.08,1.26,1.78-.15,2.15.15,2.76,2.38,1.19,6.4,2.61,8.55.07.38-.08,6.77-1.19,7.44a2.39,2.39,0,0,0,.44.3,32.29,32.29,0,0,0-1.19,5.88c-.07.9,2.76,3.42,2.53,6.7C80.51,211.33,79.1,211.63,77.83,211.77Zm-23.58,6a10.73,10.73,0,0,0-.82,1.34l5.65-3C58.11,215.35,55.66,217,54.25,217.73Zm3.2-3.13c-.6.23-1.05.3-1.57.52L55,216.39C55.29,216.24,57,215.64,57.45,214.6ZM75.6,189.15c-1.41.08-4.83,4.24-8,8.48l-.38-.37c.23-.59.45-1,.15-1.34-1.19,1.34-1.71,2-1,3.43q-1.68,2.22-3.13,4c-1.33,1.71-3.34,4.91-5.06,7.36,1.49-.89,2.61-2.45,5.59-3.72a46.75,46.75,0,0,1,6.84-2.16,21.78,21.78,0,0,1,1.27-4.39l1.26,1.12c.9-2.31,1.94-8.34,2.76-11.68Zm-13,25.15v-.07c-1.64.07-2.31.22-2.6,1.41C60.64,215.27,61.76,214.83,62.58,214.3Zm6.55,7.52-.3,1h.45l.3-1.19Zm2.31-17.93c-.3.89.22.89.74.82l.07-.82Zm.67-1.19-.3-.08-.3.82h.67Zm2.15-9.16h-.67l.6-2,.67-.29Z"/><path d="M127.84,204.71c.07.81-.22,1.48-1.42,1.78l-4.54,1.19c.67.82,2.46.52,4.54,0l-.37.89c-5.21,1.64-12.13,4.39-16.3,4.77l-8.63.82c-1.86.74-3.2,2.45-4.46,4.61l.44.67c-1.26,2.46-3.35,6.85-4.54,9.38l-.59-.38c-.52.75.07,1.64.07,2.53a7.68,7.68,0,0,1-1.19,3l-2.75.89c-1,.38-1.64-.44-2.16-1.26l-.59.52c-.9-.89-1.27-1.79-.75-2.38a7.81,7.81,0,0,1-1.19-2.83c1.19-2.38,2.46-5.8,3.42-8,1.12-2.38.75-4.17-1.19-5.36L85.05,212a3.53,3.53,0,0,0,2.08-2.53l4.32-1.27-.45-.74c2.16-.52,1.42-2.46,2.46-5.06l6.92-17.27c.89-2.16,2.16-4.69,4.39-5.95l4.17-2.31c5.13,0,12.2,6,12.2,13.17a8.81,8.81,0,0,1-1.56,5.21c-1-.14-1.86-1-2.68-1.26a8.36,8.36,0,0,0-2.08-5.43c-4.4,1.78-7.15,9.6-11,16,.67.67,2.31-.3,3.8.59l-2.31.52.67.52c2.23-.29,5.36-.81,7.52-1.11.37-.08,1.19.67.44.89-.52.15-1,.45-1,1l5.88-1.11,1.34.81,2.08-.44a1.45,1.45,0,0,0,1.34-.89Zm-40,12.12.37,1.94c.37-.37.59-.67.59-1S88.55,217.21,87.88,216.83Zm3.64,9.6-.52,1,.52.52,1.19-2.16A1.57,1.57,0,0,0,91.52,226.43Zm3.28-9.37a3.56,3.56,0,0,0-1.64,1.78,2.16,2.16,0,0,0,.22,1.79Zm2.68-1.27c-.45.08-2.31,1-2.31,1.86,0,.38.45.67.82.67Zm16.14-6.1c-.89.3-1.86.15-2.08.52-.15.22-.22.75,0,.67l2.08-.52C113.92,210.29,113.77,209.62,113.62,209.69Zm5.21-1.34c-2.23.15-2.9.82-4.31,1.19-.23.08-.23.67,0,.6,2.3-.6,3.72-.9,4.09-.6l2.23-.67C120.32,208.28,119.73,208.28,118.83,208.35Z"/><path d="M163.85,190.94c-6.77,3.05-13.69,3.27-20.24,5.13-.82,1.34-1.86,3.05-3.12,5.06,3-.3,9.15-2.83,11.31-2.83s2.82.75,4.39,3.43a1.5,1.5,0,0,0,.82,1.93l-.53,1.64c-4.53.74-15.62,2.53-19.34,4.17-1.94.82-3.65,9-3.72,10.71,2.3,1.72,5.8,1,8,.45l.44.74c.53,0,1.2-.44,1.2-.89,1.11-.15,1.48,1.64,2.53,1.34,4.83-1.34,10.56-3.27,14.28-4.46.23-.08.52-.15.6.07.15.37-1,.89-1.56,1.19l-5.06,1.86c.44.3,1.26.82,1.78,1.12.23.07.08.22-.15.3-3.72,1.26-8.33,2.53-12.5,3.57a6.6,6.6,0,0,0,4.17.15c3-.82,7.07-2.24,10.71-3.5.23-.08.75-.3.38.44a3.66,3.66,0,0,1-2.09,1.64c-4.83,1.86-11.09,4.09-15.62,4.09-8.71,0-14.89-3.94-14.59-14.8.15-5.51,4.69-12.28,10.12-23.67a6.93,6.93,0,0,1,1-5.65c3.72.44,5.88-5.29,8.49-5.29a36,36,0,0,1,6.32,1.42,10.31,10.31,0,0,1-1.34,5.35,42,42,0,0,0,6.48.67l.67,1.42a11.22,11.22,0,0,1,1.86-.45c.81,0,2.6.75,3.64.89.15,0,.3.15.15.3-3,2.68-5.06,1-4.54,3.28,2.23-.9,4.09-1.42,6.18-2.38.3-.15.74-.67.82-.23C165.94,189.9,164.6,190.34,163.85,190.94Zm-31.48,26c-.29,1.34-.37,2.31.23,2.75l.37-2Zm1.19-4.24-.81,2.75.52.67,1-3.5Zm.15-.52h.08a9.28,9.28,0,0,0,1.34-1.94c-1-.07-1.27.37-1.42,1.12ZM138,201.36l1-.15.75-1.71C139.15,199.5,138.18,200.54,138,201.36Zm3.42-5-1.27,2.08,1-.22,1.27-2.08Zm9.67,22.33c-2.08,1.56-4.69,2.6-5.58,1.19a61,61,0,0,0,9.6-3c.3-.15.37.07.22.3A5.73,5.73,0,0,1,151.05,218.7Zm7-30.07.22.89,1.34-.59C159.54,188.56,158.49,188.48,158.05,188.63Z"/><path d="M205,212.29a5.8,5.8,0,0,1-3.5,1.27c-.89,0-1.11-.15-1.26-.37-1.34,1.34.82,2.45,5.88.44.37-.07,1,.15.67.3-1.42.67-4.54,2.31-5.59,2.31a13.35,13.35,0,0,0-4.53,1c-4.69,1.63-12.13,4.46-17.49,6.62-1,.37-2.53,1.86-3.43,1.93a29.8,29.8,0,0,1-3.72.3,1.41,1.41,0,0,1-1.26-.82h-1.71c-1.12-1.11-2.39-3.42-3.35-3.42h-.9c1.27-13.1,14.66-33.19,21.44-41.9v-1.19c4.16,0,6.32,3.35,6.32,6.92,0,.9-3.79,9.38-5.13,11.84-.9,1.56-3.28,3.79-4.54,5.58-.67,1-1.12,2.9-1.71,3.94-.82,1.49-3.35,2.76-2.46,4.91,5.06-1.56,6-1.71,6.62-1.86a10.84,10.84,0,0,1,2.76-.44A3.13,3.13,0,0,1,191,211a16,16,0,0,1,3.72-1.56c1,0,1.12.37,2.16.37s4.84-1.27,7.37-2c.07.15.37.3.89.37v.08c-2.31.74-5.36,1.49-7.29,2.68l.74.44c2.31-.82,7-2.9,9.6-3.5a6.33,6.33,0,0,1,2,1.12c1.12-.45,3-1.49,3.12-1C213.56,209.1,208.79,211.33,205,212.29Zm-27.09-5c-.52,1.33-1.41,2.6-.44,3l1.33-2.83Zm19.5,7.81c-3.95.74-12.2,3.79-17.34,6.32l.07.3,18.46-6.1ZM182.23,201.5c-.75,0-1,.9-1,1.34h1Zm9.52,10.72,1.64-.89a2,2,0,0,0-2.08.3ZM206,207.83c-.22.07-.82-.3-.59-.37l1.48-.45c.82-.22.75.23.38.37Zm1.94,5.58a.77.77,0,0,1-1-.22v-.08c4.4-1.93,4.92-2.23,5.51-1.78Zm2.82-5.36a4.69,4.69,0,0,0-1.11-.67c.3-.22,2.9-1.11,2.9-.74S211.33,207.68,210.8,208.05Z"/><path d="M259.25,183.87a8.54,8.54,0,0,1,3.87-1c2.67-.07,4.76.3,6,1.19l-1.49,1,.15.3a6.94,6.94,0,0,0,2.38-.74l2.09,2.23a45.06,45.06,0,0,0-14.59,12.13c-.44.59-.74-.3-1.19,0-.15,2.68-1.71,4.09-3.5,6.92-.37.67-.22,1.64-.66,2.68,0,.45-1.12.89-1.34,1.56-1.87,5.73-4.4,11.69-6.78,17.79l-3.35-1.57-.44,1c-4.76-1.27-5.21-3.13-5.88-8.11-.22-1.94.37-5.29-.15-6.93-1.79-5.2-.07-7.44-.52-11.23l-.37-2.91c-2.31.75-4.91,3-6.85,6.48l.22,1.19c-3.72,7-7.07,16.67-10.41,21.13h-2.09c-2.16,0-3.35-5-4.24-5.43l-.45-3.27c-.37-2.31.3-3.13.82-4.54,5.29-12.8,13.77-20.54,19.65-26.57,2.23.82,8.33,4.62,9.38,7.37.89,2.23,1.78,6.92,2.53,10,5.06-8.78,12.5-19.72,14.13-20.32l1.57-.22c-4.62,4.54-7.89,9.9-9.68,12.5-.67,1.12-1,1.57-.82,1.64l.45.3C249.87,195.18,254.86,188.11,259.25,183.87Zm-29.47,5.21-1.64,1.71c.89.74,1.71-.75,2.23-1.27ZM252,212.74l-.67-.45c.08-1,.15-2.45,1.05-2.08Zm5.88-17.26c-.59.89-1.78,2.45-1,2.82l1.56-2.38C258.5,195.7,258,195.25,257.83,195.48Zm-.37-7.89,1.26-1.64-.59-.3a6.06,6.06,0,0,0-1.27,1.57C256.94,187.37,257.16,187.66,257.46,187.59Zm2.31,5.28-1.49,1.94c.44-.08.59.07.67.37l1.34-1.94C260.44,193.1,260.14,192.43,259.77,192.87Zm5.65-6.17.15.67c.75-.53,1.42-.6,1.27-1.72Z"/>
    </g>
</svg>
