<svg xmlns="http://www.w3.org/2000/svg" width="32.101" height="22.571" viewBox="0 0 32.101 22.571"><defs><style>.a{fill:#383d46;}</style></defs><path class="a" d="M46.363,67.532a4.033,4.033,0,0,0-2.838-2.856C41.021,64,30.983,64,30.983,64s-10.038,0-12.541.675A4.034,4.034,0,0,0,15.6,67.532a45.414,45.414,0,0,0,0,15.553A3.973,3.973,0,0,0,18.442,85.9c2.5.675,12.541.675,12.541.675s10.038,0,12.542-.675a3.973,3.973,0,0,0,2.838-2.811,45.414,45.414,0,0,0,0-15.553ZM27.7,80.081V70.535l8.39,4.773Z" transform="translate(-14.933 -64)"/></svg>