<svg xmlns="http://www.w3.org/2000/svg" fill="none" viewBox="0 0 62.974 67.209"><g transform="translate(-302.248 -287.876)"><g transform="translate(176.732 105)"><path d="M156.623,192.164c1.761-2.861,1.362-3.926-1.795-5.057-1.795-.632-3.689-1.131-5.417-1.93-3.921-1.863-5.749-1.464-8.374,1.863-2.559,3.227-4.553,6.521-4.952,10.879a70.12,70.12,0,0,1-2.825,12.709c-1.363,4.757-3.656,9.315-4.52,14.106-1.13,6.421-1.329,13.008-1.861,19.562a3.466,3.466,0,0,0,3.091,3.693,16.114,16.114,0,0,0,3.124.166c3.589.033,7.178-.233,10.734.133,9.006.865,17.912,1.031,26.752-1.231a41.943,41.943,0,0,0,12.429-5.123,8.978,8.978,0,0,0,3.323-11.844c-1.529-3.26-4.088-5.589-6.813-7.752a21.694,21.694,0,0,0-20.5-4.026c-4.852,1.431-8.042,5.057-10.834,9.016a65.9,65.9,0,0,0-3.29,5.722c0-.865-.033-1.3,0-1.73.233-5.356.5-10.679.764-16.036.133-2.695.332-5.39.5-8.084a2.239,2.239,0,0,1,1.828-2.362,8.682,8.682,0,0,0,3.29-1.464c1.695-1.431,3.157-3.127,4.785-4.658C158.783,196.123,158.916,195.158,156.623,192.164Z" fill="none"/><path d="M156.556,192.189c2.293,2.993,2.16,3.957-.6,6.551-1.628,1.53-3.091,3.226-4.785,4.656a8.684,8.684,0,0,1-3.29,1.463,2.189,2.189,0,0,0-1.828,2.361c-.133,2.694-.332,5.387-.5,8.081-.266,5.354-.5,10.674-.764,16.028-.033.432,0,.831,0,1.729,1.23-2.161,2.127-4.057,3.29-5.72,2.791-3.957,5.982-7.582,10.834-9.012a21.7,21.7,0,0,1,20.5,4.024c2.725,2.161,5.251,4.489,6.813,7.748a8.981,8.981,0,0,1-3.323,11.838,41.09,41.09,0,0,1-12.429,5.121c-8.84,2.261-17.746,2.095-26.752,1.23-3.556-.333-7.145-.1-10.734-.133a16.409,16.409,0,0,1-3.124-.166,3.465,3.465,0,0,1-3.091-3.691c.5-6.518.7-13.135,1.861-19.553.864-4.822,3.157-9.378,4.52-14.1a72.985,72.985,0,0,0,2.825-12.7c.432-4.356,2.426-7.648,4.952-10.874,2.625-3.325,4.453-3.691,8.374-1.862,1.728.8,3.622,1.3,5.417,1.929C157.919,188.265,158.318,189.33,156.556,192.189Z" transform="translate(0)" stroke="currentColor" stroke-miterlimit="10" stroke-width="2.5"/></g></g></svg>
