<svg fill="currentColor" xmlns="http://www.w3.org/2000/svg" viewBox="0 0 650 650"><path class="cls-1" d="M539 392c-20 17-43 19-68 16l2 10 14 60a327 327 0 0110 72l-1 57a5 5 0 01-5 6c-3 0-5-3-5-6l1-29a447 447 0 00-4-68v-1l-31 9-28 4a4 4 0 00-2 2c-4 5-10 8-16 11-18 8-37 16-57 19a126 126 0 01-62-4l-39-15c-7-3-14-6-19-12a2 2 0 00-2-1c-20-2-39-7-57-14l-2-1-2 14a474 474 0 00-2 67l1 18c0 3-2 6-5 6s-5-3-5-6l-1-61c1-27 5-53 12-79l13-55a23 23 0 001-4c-25 3-48 1-68-16l-2 9c-5 26-15 50-24 74L46 581l-4 17c0 3-3 4-5 4a5 5 0 01-4-6v-2c2-14 7-27 12-40l41-109a15 15 0 001-7 190 190 0 01-3-38c1-23 4-46 8-68a5 5 0 00-1-3l-16-25a149 149 0 01-19-113c7-22 20-39 40-50 17-8 34-14 52-14 6 1 9-1 12-6 31-38 69-65 117-78 21-6 42-7 63-5 65 6 114 39 154 88l3 2c9-1 18 0 27 2 15 4 30 10 43 20 16 13 25 30 29 49 5 24 2 47-5 70a138 138 0 01-19 41l-9 13c-5 6-5 12-4 18 4 21 7 42 7 63 0 12 0 25-3 37l1 5 17 46 32 86 4 18a5 5 0 01-4 6c-2 1-5-1-6-4-5-28-17-53-27-80l-34-93-7-32v-1zM291 263l-7-6-1 3 8 3c7 8 10 16 6 26-5 14-11 28-20 40-18 23-37 45-62 62a28 28 0 00-3 3l9 9 3-6c11-18 23-34 41-46 23-17 48-26 77-19a119 119 0 0119 5c24 9 42 26 57 47l13 20 8-9a13 13 0 01-1-2c-18-12-33-27-48-44a185 185 0 01-36-60c-2-7-2-13 2-20l5-6 8-2-2-3-6 5-25 9c-4 1-9 2-13 1-10-1-19-4-27-9a30 30 0 01-5-1zm229-47l-8-26c-6-19-13-38-24-54-21-30-49-53-83-69a165 165 0 00-95-17l-21 1-15 4a211 211 0 00-118 91c-7 14-13 29-18 44l-7 25c7 5 7 5 11 13a23 23 0 003 7c4 4 7 6 13 2 13-10 28-16 44-21a94 94 0 0133-3c9 0 13 3 15 12a2 2 0 002 0l23-1a12 12 0 0111 8c2 4 2 9 2 13l1 3 10 7 20 8a3 3 0 002 0c15 1 29-4 41-14a5 5 0 001-2l1-12a12 12 0 0112-11 123 123 0 0125 1c0-6 4-10 10-11a45 45 0 017-1c18-1 35 4 51 11 9 4 17 10 25 15h7c4-3 6-7 8-11 2-5 5-9 11-12zm-86 240l-2-19c-4-19-14-36-26-52-9-13-20-24-34-31a88 88 0 00-99 3c-24 16-40 39-50 66-9 25-7 50 2 74 5 14 15 25 29 30l35 13a108 108 0 0040 6c15-1 29-5 43-9l29-11 12-8a66 66 0 0015-26c4-12 5-24 6-36zm-270-58h7a60 60 0 0032-10c27-18 49-42 68-68 8-11 13-24 17-36 2-4-1-12-3-13-5 0-11 0-14 4-17 15-36 27-54 40-3 2-6 1-8-1-2-3-1-6 2-8l26-17c12-9 23-18 33-29a28 28 0 007-15c1-6-4-12-9-12-11 0-21 2-30 8l-53 39c-3 3-6 3-8 0-2-2-1-5 2-7l59-43c2-1 3-3 2-4l-3-3c-9 1-17 0-25 2-18 4-35 10-50 22-3 2-7 4-10 4-6-3-12-6-15-12l-5-10c-2-3-6-5-8-3-6 3-11 8-12 15a163 163 0 00-3 24l1 29 2 73c1 11 6 18 16 23a67 67 0 0036 8zm379-126l-2-25c-1-8-4-16-12-20-1-1-3-2-4-1-3 1-5 2-6 6-3 9-10 16-19 19a7 7 0 01-4 0 19 19 0 01-6-3c-12-10-27-16-43-21a78 78 0 00-32-3l-3 2c-1 1 0 4 1 4l41 29 19 15c3 2 4 5 2 7s-5 3-8 1a4 4 0 01-1-1l-52-38c-9-7-18-9-29-9-5 1-7 2-9 6-3 6-1 12 2 17 6 6 11 12 18 17 14 12 30 22 45 33 3 3 4 5 2 8-2 2-5 3-8 0l-33-22a209 209 0 01-18-15c-3-3-6-4-11-6-8-2-10 3-10 10l1 5 14 29c10 18 24 32 38 46 10 11 21 19 34 27 11 7 23 9 36 10 14 1 27-2 40-9 7-4 12-10 13-19l2-21 2-78zm-41-134l12 25 19 7c18 10 31 24 35 44a118 118 0 01-14 76 13 13 0 00-2 7l4 20 5-7a142 142 0 0025-111c-6-24-20-41-43-50a187 187 0 00-25-9l-16-2zM95 316l4-19a9 9 0 00-2-8 29 29 0 01-3-6c-6-13-11-27-12-41-1-11-2-22 2-32 7-23 22-38 44-44 7-3 11-6 13-13l8-15a32 32 0 00-4 0 113 113 0 00-48 15c-15 9-24 22-30 38-5 17-5 34-3 52 3 27 15 51 31 73zm108 83l-11 5a4 4 0 00-2 3l-9 42-10 44c-1 2-2 3 1 5 16 6 32 10 49 13-9-16-12-32-13-49a107 107 0 018-49l-13-14zm228 113a211 211 0 0041-11c10-3 9-3 8-13l-1-2-17-72c-1-6-3-11-9-12a7 7 0 01-3-1c-2-1-3-1-4 1l-9 10a4 4 0 00-1 4 95 95 0 017 36c1 20-2 40-12 60zm88-337l11 39a5 5 0 002 2c11 7 17 17 19 30l2 21c5-13 6-25 7-38a51 51 0 00-15-37 54 54 0 00-26-17zm-386 0h-2a27 27 0 00-4 2c-18 7-30 20-34 39-3 13-2 25 1 38l3 12 2-17c2-13 7-25 18-32a12 12 0 006-8l10-34zm418 171c-1 25-4 50 5 74 1-25-1-49-5-74zm-450 0c-4 24-7 48-6 73 10-24 7-48 6-73z"/><path class="cls-1" d="M323 497c-14-1-26-6-37-14-11-7-21-15-27-26a140 140 0 01-7-16c-2-4 0-6 4-6h11l76-1h52c3 0 4 2 3 5-1 6-4 12-8 17a121 121 0 01-31 30 61 61 0 01-36 11zm-59-51a10 10 0 001 1c10 17 24 29 42 36 13 5 25 5 36 0 13-5 23-14 32-24l11-14c-41 3-81 0-122 1zM325 398h-1c-8 0-10-2-10-10l1-8c0-4 2-5 6-6a51 51 0 019 1c4 0 6 3 6 7l-1 8c0 6-2 8-9 8a3 3 0 00-1 0z"/><path class="cls-1" d="M325 398l-3 1q-7 0-7-7l-1-11c0-3 1-5 4-5a58 58 0 0113-1c2 0 3 3 4 5l1 10c0 6-2 8-9 8z"/></svg>
