<svg xmlns="http://www.w3.org/2000/svg" fill="currentColor" viewBox="0 0 650 650"><path d="M310 313c-5-6-5-8 2-13a45 45 0 0010-10c12-17 19-36 26-55l15-49 4-15c0-3-1-5-3-7-5-5-5-7-2-13 4-8 4-16 6-24l11-38 12-36c0-2 2-5 5-5s5 2 6 5l9 33 4 22a12 12 0 01-3 10 4 4 0 00-1 3c2 10-1 20-2 29a42 42 0 000 11 436 436 0 01-32 146c-9 22-24 39-42 55a67 67 0 01-27 13c-10 3-20 6-30 6-23-1-43-9-61-24l-7-6c-11-8-15-19-17-32-2-18 0-36 2-54a353 353 0 0149-149c2-2 2-5 3-8 8-17 16-34 30-47 6-6 14-11 21-15l47-21a13 13 0 016-2c2 0 4 0 5 2a219 219 0 0117 18c4 6 4 11-2 16a57 57 0 01-12 10c-24 13-47 28-64 50-6 8-10 18-14 27a8 8 0 000 6c2 4 2 6-2 9s-6 5-7 9l-18 64a224 224 0 00-6 57c0 5-1 9-3 14v4c3 5 9 8 15 9 17 6 34 4 49-5a3 3 0 001 0zm10-6c5 5 4 9-2 12l-10 5c-18 9-37 10-56 2-9-3-16-9-19-18-1-3-2-7 1-8 4-2 4-6 4-9 0-21 2-42 7-63l13-46 6-21c1-2 5-4 6-7l1-10c6-17 15-32 28-44a232 232 0 0157-40l8-7a4 4 0 000-3l-12-14-5-1-44 20c-8 4-16 8-22 15-11 15-21 30-26 48a13 13 0 01-1 3c-20 30-32 63-40 97-5 18-7 37-10 57a325 325 0 00-1 41c0 11 4 22 14 29l7 6c13 11 28 17 45 20 18 2 35-3 51-10a47 47 0 009-6c18-15 32-32 40-54 14-35 26-71 29-109l1-33a68 68 0 010-9c2-10 5-20 2-30-1-2 1-5 2-7 3-2 3-5 3-7l-5-21-4-17-10 28-9 34c-2 9-3 17-7 25l1 4a13 13 0 014 11l-1 10-26 80c-6 17-15 33-29 47zM143 152l-26 17-19 11c-10 7-20 6-30-1a48 48 0 01-8-7c-3-3-4-7-1-10l10-11 57-47 46-38a132 132 0 0113-9 33 33 0 0126-4c16 3 23 17 19 29-4 16-10 31-16 46l-26 64a4 4 0 000 3c3 3 2 7 0 10l-22 39-8 13a32 32 0 013 2 5 5 0 011 6l-17 27c-16 25-27 54-39 81a966 966 0 00-38 105c-4 11-5 22-7 34v4l-4 5a4 4 0 01-6-3l-4-14c-5-24-5-47-3-71 1-13 2-26 5-39 5-23 14-44 23-66l59-138 13-37a1 1 0 01-1-1zm-77 12l2 2 4 4c8 6 13 7 22 2l14-10 40-25c3-2 6-2 9 0s1 5 0 8l-3 6-9 29-34 84-40 94a247 247 0 00-17 129 75 75 0 003-8c7-20 13-40 21-59a1134 1134 0 0149-115l20-36v-3a6 6 0 010-8l7-13 23-40a5 5 0 000-4 7 7 0 010-7l6-15c8-20 17-39 24-59 6-14 10-27 14-40 2-7-3-15-10-17-8-1-15-1-22 3l-6 4-46 38-63 51-8 5zM234 588l-8 3c-27 3-51 12-75 24a100 100 0 01-43 10h-2c-3-1-6 0-8 3-3 4-8 4-12 3a31 31 0 01-10-4 123 123 0 01-15-12c-7-6-4-19 5-22 23-8 46-17 70-24 27-9 55-16 83-24l33-11h10a8 8 0 003-1l10-2 35-3 5-3c3-1 6-3 8-2 10 2 19 0 28 0l6-1c3 0 5-1 6-4 2-4 5-5 9-4a48 48 0 0010 0l68 1a8 8 0 014 1c8 4 16 1 24 2a4 4 0 002-2 7 7 0 018-4c25 4 50 12 71 28 8 5 7 9-1 13a45 45 0 01-15 4l-38 2c-4 0-7 0-9 4a5 5 0 01-4 3l-30 5-9-3c-3-2-6-3-9-1s-6 3-10 3l-81 6-31 3-33 3c-8 0-14 3-21 3l-22 4c-4 0-9 2-12-1zm317-42v-1a32 32 0 00-3-3c-18-10-37-16-57-20a4 4 0 00-3 1 9 9 0 01-8 4h-16l-12-2-4-1h-74a6 6 0 00-5 2c-2 2-5 5-8 5a256 256 0 01-32 2c-5 0-9-1-12 2a11 11 0 01-5 2l-36 3-7 2c-2 0-5 2-6 1-4-1-8 0-11 1l-12 4-94 27a685 685 0 00-78 29 7 7 0 002 5 91 91 0 0010 8 42 42 0 008 4l4-1c2-5 7-6 12-5 13 1 25-2 37-6l47-20c29-9 60-11 90-16l29-3 13-2 30-2 49-5 34-2 6-1c6-5 12-4 17 0a16 16 0 0012 2l17-3a5 5 0 004-2c3-5 7-6 12-7h25l25-2zM484 457c-1 6-4 8-9 8-9 2-17 3-26-1a18 18 0 00-16 1c-5 3-11 3-16 2a39 39 0 00-11 0l-61 4-17 2c-17-2-31 4-46 9-11 2-22 5-33 5a12 12 0 00-7 2c-12 8-25 11-39 11-6 0-11 0-17 2-7 2-18-1-20-11-2-8-4-16-3-24 2-7 4-9 11-10l19-6 104-29c8-3 17-2 26-3l17-2 4-1c4-3 8-2 12-2l22 2c2 0 3-1 4-3 1-4 4-4 8-4a115 115 0 0015 1l43 1 11 5c2 1 4 2 7-1 1-2 4-3 6-3l16 1a105 105 0 0137 25 38 38 0 014 5c4 7 1 14-7 15h-25l-13-1zm37-8v-1a70 70 0 00-5-6 98 98 0 00-28-18c-4-2-8-2-13-3a4 4 0 00-2 1c-7 6-13 6-20 1a21 21 0 00-7-2 61 61 0 00-11-1h-40c-2 0-4 0-6 2-1 2-4 3-7 3l-20-1c-4 0-8-2-11 0-8 3-17 3-25 4l-27 3-93 26-31 9a3 3 0 00-2 3 159 159 0 002 18c1 4 4 5 8 5a152 152 0 0120-2c12 0 23-3 34-10 3-2 6-3 10-3 12 0 24-3 35-6 14-4 28-9 42-9h13l11-2h11l48-4 12 1 10-1a29 29 0 0125-1c6 2 12 1 18 0l2-2c2-6 4-8 11-7 11 2 23 2 36 3z"/><path class="cls-1" d="M618 100l-13-52a6 6 0 00-6-5c-3 0-4 2-5 5l-12 34-11 40c-2 8-2 16-6 23-3 7-3 9 2 13 2 3 3 5 2 8l-3 17-18 56c-6 15-13 31-22 44a54 54 0 01-12 12c-6 5-6 7-1 12a61 61 0 01-52 6c-5-1-10-4-13-9a5 5 0 010-4c3-4 3-9 3-14a253 253 0 019-68l15-53c1-4 3-7 7-9s4-4 2-9v-5c5-14 11-26 21-36 16-17 36-31 57-42a47 47 0 0011-8c7-6 7-11 1-19l-12-14c-4-5-6-6-12-3l-55 25a44 44 0 00-14 9c-14 15-23 32-31 51l-2 7a393 393 0 00-52 178 145 145 0 001 28c1 12 7 21 17 29 13 11 27 21 44 25 21 6 41 3 62-5a66 66 0 0017-10c19-15 34-33 43-55 13-35 25-70 30-106 1-14 3-27 1-40l1-14c2-9 4-17 2-27a2 2 0 010-2c5-3 5-8 4-13zm-13 9c-1 1-2 4-1 5 3 11-1 21-3 32a12 12 0 000 4l1 29c-3 39-15 76-28 112-8 23-23 41-41 57a50 50 0 01-10 7c-16 7-33 12-51 10-17-3-32-9-45-20a150 150 0 01-15-14c-5-6-6-13-6-20a515 515 0 0111-99c8-34 20-67 39-97a8 8 0 002-3c5-18 15-34 28-49 5-5 12-9 18-12 15-8 31-14 46-21a6 6 0 015 1 173 173 0 0112 13v4a64 64 0 01-10 7c-25 13-47 29-65 50-8 10-13 21-18 33v10l-6 8c-3 6-4 13-6 20l-14 50c-5 19-7 39-7 60 0 3 0 6-3 8s-2 5-1 8c3 9 10 15 19 18 20 8 39 7 58-2a79 79 0 008-5c5-3 6-6 1-12 12-11 19-24 25-38 13-30 22-61 30-92 3-9 2-12-5-20 5-9 6-20 8-30l11-37a203 203 0 017-21l7 26 2 9c1 4 1 8-3 11z"/></svg>
