<svg fill="currentColor" xmlns="http://www.w3.org/2000/svg" viewBox="0 0 650 650"><path d="M449 593l-12 1v-8-43l-3-30c0-5-3-8-6-11-12-9-21-20-28-34l-14-23c-5-6-11-10-19-12a261 261 0 01-28-10c-9-4-12-12-13-22 0-18 11-30 31-33 19-3 34 4 47 17l1 1 13-1c1-1 3-4 3-7a223 223 0 002-23V254c0-15 0-29 4-44 3-8 8-15 17-17 12-3 20 3 22 14a52 52 0 011 9l5-26c4-14 17-20 31-14 11 4 15 13 16 24v7l5-7c7-9 19-11 28-4 10 8 14 18 15 30l1 21 7-12c5-7 12-8 20-4a24 24 0 0113 19l2 34c1 25 3 49 3 74 1 26 2 52 1 78a106 106 0 01-6 33 75 75 0 01-22 32c-5 5-8 10-7 17l1 56 2 18h-13l-1-15-2-50v-17a13 13 0 015-12 77 77 0 0024-31 88 88 0 006-26l1-46-2-64-3-66a94 94 0 00-2-15 15 15 0 00-4-7c-3-3-6-2-7 2-2 5-5 10-5 15l-4 53-2 41c0 2 0 5-3 5-5 0-9-1-10-5a20 20 0 010-4l-2-67-4-60c-1-7-4-13-9-17-4-4-11-2-12 2-2 6-4 11-4 17-2 30-3 59-2 89l-1 25c0 4-2 6-6 6-6 1-9-2-10-8-2-28-1-56-1-85 0-15 0-31-2-46a89 89 0 00-2-13c-1-4-7-7-12-7s-7 2-9 7c-3 10-4 21-4 31l-2 41v28l-1 35a25 25 0 000 4c0 4-2 7-6 7-8 0-10-2-10-9l-2-33-1-30-3-47a78 78 0 00-1-12 5 5 0 00-3-3c-3-1-6-1-8 2l-5 11-3 30 1 110c0 9 0 18-3 27-3 7-7 12-15 12l-13 2c-4 0-7-2-9-5a38 38 0 00-50-9c-7 4-8 11-6 19 1 4 4 7 8 9l21 7c13 3 22 10 29 21l17 27c6 11 15 20 25 27a9 9 0 013 3c5 8 5 17 5 25l1 56v14zM81 248l4-30c1-10 7-17 15-23 6-5 22-2 25 4a73 73 0 006 8l1-11c1-16 17-23 30-22 8 2 14 6 16 15s5 18 5 28v-5l1-5c1-11 10-17 22-14 12 4 16 13 18 23 4 20 3 41 3 61v91l2 13c0 3 2 5 5 5l8 1a6 6 0 004-2c11-11 24-18 40-17 11 0 20 3 28 10 11 8 11 25 6 35-3 6-7 10-13 12l-25 8c-7 2-13 5-18 12l-17 26c-5 11-12 21-22 28-7 5-11 12-11 21l-1 64-1 10-12-1 1-7v-41c0-10 0-21 2-31 0-5 2-11 4-16a8 8 0 012-3 72 72 0 0027-28l17-28c7-11 17-16 30-19l19-7c4-1 6-4 8-8 3-11 0-17-9-22-15-7-35-3-46 11-3 3-6 5-11 5a113 113 0 01-14-2c-9-1-12-8-14-16a6573 6573 0 00-2-141c1-8-1-16-3-25a20 20 0 00-4-8c-2-2-5-2-8-2s-3 3-3 5l-3 55-4 61v6c0 6-3 8-10 8-4 0-6-4-6-8l-1-22v-37l-1-41-2-24a129 129 0 00-4-17c-1-4-6-6-11-4-6 1-10 5-10 14l-3 45v70l-1 23c0 4-3 7-8 6-4 0-8 0-8-5l-1-30-1-63-2-30a25 25 0 00-2-8c-2-5-9-7-14-2-6 6-8 13-9 22-2 40-4 80-4 121 0 6-3 9-9 9-3 0-4-1-4-3l-2-23-3-59c0-9-1-18-4-26-1-3-2-7-6-7-4 1-6 4-7 7a73 73 0 00-3 16l-2 59-2 36v31l-1 33c0 13 1 27 5 39a73 73 0 0019 30l7 6c4 3 6 7 6 12l-2 44-2 34a34 34 0 010 4H69l1-12 1-21 1-43a15 15 0 00-5-13 82 82 0 01-22-29 93 93 0 01-7-26c-3-19-2-38-2-58l1-4 1-58 3-68c0-7 1-14 5-20 5-8 13-12 22-11 5 1 7 5 9 8l4 11zM292 56c7 0 11 3 10 11l-3 69a120 120 0 01-2 12c0 3-2 6-5 7-3 0-6-1-8-4l-21-31-24-35c-4-7-3-12 5-15l41-13 7-1zm-41 25l35 53 1-1 2-60c0-4 0-4-4-3l-23 7-11 4zM358 56a66 66 0 019 2l35 11a43 43 0 015 2c7 2 8 8 4 14l-32 48-13 18c-2 3-5 5-8 4s-5-4-6-7l-2-26-3-55c0-8 3-11 11-11zm5 79l35-54-1-1-32-10c-4-1-4 0-4 3l1 48 1 14zM444 156c-7 0-11-7-7-13l12-23 19-30a107 107 0 018-11c3-4 8-4 12 0l21 30 9 17c5 9 2 15-7 17l-52 11-15 2zm7-14l1 1c18-3 36-6 53-12l-24-39-30 50zM215 147c-1 6-5 9-10 9-23-2-46-7-68-13-7-2-10-8-7-14 8-16 17-31 28-46a46 46 0 014-4c4-4 9-4 12 0l21 33 18 30 2 5zm-71-15c18 5 36 8 53 11l1-1c-9-17-19-33-30-50l-24 40z"/></svg>
