<?xml version="1.0" standalone="no"?>
<!DOCTYPE svg PUBLIC "-//W3C//DTD SVG 20010904//EN"
 "http://www.w3.org/TR/2001/REC-SVG-20010904/DTD/svg10.dtd">
<svg version="1.0" xmlns="http://www.w3.org/2000/svg"
 width="700.000000pt" height="700.000000pt" viewBox="0 0 700.000000 700.000000"
 preserveAspectRatio="xMidYMid meet">
<metadata>
Created by potrace 1.11, written by Peter Selinger 2001-2013
</metadata>
<g transform="translate(0.000000,700.000000) scale(0.100000,-0.100000)"
fill="#000000" stroke="none">
<path d="M3275 6994 c-499 -40 -926 -157 -1351 -372 -337 -171 -592 -353 -863
-617 -572 -558 -925 -1264 -1033 -2067 -17 -131 -22 -215 -22 -428 -1 -342 23
-549 99 -857 142 -572 423 -1092 829 -1533 460 -501 1084 -866 1749 -1024 312
-75 462 -91 827 -91 310 1 379 6 630 51 698 125 1387 496 1882 1013 524 547
845 1214 953 1986 22 155 31 559 16 737 -113 1331 -974 2483 -2221 2971 -270
106 -548 174 -860 213 -119 15 -529 26 -635 18z m505 -324 c296 -27 614 -101
885 -207 409 -160 770 -398 1090 -718 521 -521 820 -1145 917 -1910 19 -151
15 -561 -6 -720 -25 -182 -60 -352 -107 -513 -264 -904 -931 -1657 -1796
-2026 -165 -71 -311 -121 -321 -112 -9 9 14 199 34 276 42 165 112 248 294
349 281 155 466 279 606 406 42 38 93 81 113 96 63 45 107 106 179 247 80 158
150 327 218 527 57 170 59 194 47 722 l-8 363 -25 24 c-31 31 -114 55 -138 40
-63 -39 -116 -219 -142 -483 -23 -235 -13 -298 66 -390 33 -38 36 -46 31 -87
-10 -89 -142 -326 -268 -481 -92 -112 -199 -201 -199 -164 0 9 109 164 271
386 53 72 108 151 122 176 64 109 8 209 -117 209 -117 0 -222 -76 -428 -310
-159 -181 -271 -274 -413 -345 -107 -53 -196 -78 -365 -106 -149 -24 -205 -40
-285 -84 -215 -120 -460 -461 -500 -698 -23 -135 -38 -443 -32 -639 l6 -178
-55 0 -54 0 0 231 c0 272 -14 488 -40 618 -15 75 -30 114 -75 195 -146 259
-315 434 -490 505 -33 13 -122 34 -197 47 -171 28 -270 55 -365 99 -148 68
-273 168 -411 329 -181 210 -262 281 -360 319 -100 39 -194 10 -221 -70 -13
-36 -13 -45 2 -84 9 -24 92 -145 183 -269 194 -262 239 -328 231 -336 -24 -24
-195 149 -291 294 -77 116 -160 278 -177 345 -11 45 -10 51 10 75 95 118 105
154 91 330 -20 260 -60 446 -112 528 l-29 47 -51 -6 c-60 -7 -95 -28 -109 -65
-15 -40 -32 -810 -19 -899 11 -80 57 -226 132 -412 113 -285 230 -494 305
-543 21 -14 80 -64 132 -111 51 -48 147 -124 212 -169 105 -73 173 -114 433
-260 171 -95 243 -224 276 -488 5 -41 7 -76 5 -78 -7 -8 -271 103 -396 166
-322 164 -582 355 -836 615 -498 509 -792 1120 -889 1842 -22 159 -25 569 -6
720 96 759 394 1385 907 1901 257 259 522 451 835 609 340 171 752 289 1130
324 136 12 436 13 570 1z"/>
<path d="M3875 5926 c-36 -16 -198 -182 -244 -248 -90 -134 -125 -260 -119
-434 l3 -116 -86 91 c-86 90 -118 109 -162 97 -13 -3 -76 -59 -139 -125 -101
-103 -122 -131 -162 -212 -64 -131 -80 -199 -80 -345 l1 -120 -86 88 c-82 84
-88 88 -130 88 -41 0 -48 -5 -128 -82 -176 -172 -247 -301 -273 -499 -28 -208
44 -420 201 -592 l62 -68 -342 -343 c-334 -335 -341 -343 -341 -382 0 -22 7
-49 15 -62 18 -24 67 -41 103 -34 14 3 159 143 359 348 l337 343 58 -54 c76
-71 133 -110 221 -150 227 -105 503 -79 714 66 64 44 221 196 240 233 26 51
11 83 -90 185 -50 51 -84 91 -74 87 46 -16 185 -17 259 -2 168 33 271 91 425
241 110 108 113 112 113 154 0 42 -4 48 -91 136 l-91 93 105 -5 c132 -7 229
13 352 72 74 35 112 63 212 155 136 124 154 154 130 212 -19 46 -210 225 -290
272 l-66 38 59 45 c138 104 252 287 291 468 7 33 13 117 13 187 1 126 1 128
-27 155 l-28 28 -142 -1 c-175 -1 -245 -16 -385 -85 -79 -39 -121 -68 -182
-126 -43 -41 -89 -90 -100 -109 -12 -19 -25 -34 -28 -34 -4 0 -23 28 -42 62
-42 74 -222 265 -267 284 -39 17 -40 17 -78 0z m1085 -228 c-1 -165 -96 -351
-234 -455 -106 -80 -247 -132 -360 -133 l-39 0 6 83 c3 45 15 111 28 146 28
82 106 198 172 256 96 85 264 152 385 154 l42 1 0 -52z m-968 -72 c103 -123
144 -241 135 -386 -9 -138 -53 -235 -161 -355 l-45 -50 -60 60 c-167 164 -206
407 -100 616 34 69 137 188 159 186 8 -1 40 -33 72 -71z m-542 -740 c76 -154
76 -318 1 -471 -28 -56 -58 -98 -101 -140 l-62 -60 -45 50 c-110 122 -153 218
-160 360 -9 157 42 291 152 399 l60 59 62 -68 c35 -37 76 -95 93 -129z m1165
12 c75 -16 156 -61 236 -129 l71 -61 -49 -50 c-111 -116 -232 -168 -388 -168
-156 0 -277 52 -388 168 l-49 50 71 61 c104 89 178 122 321 145 33 5 112 -2
175 -16z m-730 -303 l112 -120 -126 0 c-69 0 -141 -3 -159 -7 l-33 -8 8 53 c4
28 8 102 7 164 l-1 111 40 -36 c21 -21 90 -91 152 -157z m-1076 -308 c36 -63
71 -189 71 -256 -1 -134 -58 -274 -155 -378 l-60 -66 -63 67 c-204 219 -204
523 0 742 l62 66 57 -60 c31 -32 70 -84 88 -115z m1202 -15 c87 -24 150 -62
226 -135 l62 -60 -50 -46 c-129 -117 -242 -165 -389 -165 -148 0 -284 58 -387
166 l-43 44 58 56 c72 71 129 106 217 134 90 29 213 32 306 6z m-653 -404 l22
-25 -62 9 c-60 9 -147 6 -230 -8 l-37 -6 11 38 c7 22 12 94 12 160 l-1 122
131 -133 c72 -73 141 -144 154 -157z m-15 -213 c95 -20 186 -68 264 -139 l66
-60 -68 -64 c-106 -98 -239 -152 -375 -152 -69 0 -197 36 -257 72 -30 18 -81
57 -115 88 l-61 56 64 55 c104 91 181 131 284 148 76 13 124 12 198 -4z"/>
</g>
</svg>
