<svg xmlns="http://www.w3.org/2000/svg" viewBox="0 0 30.006 30.006"><path d="M27.863,32H2.137A2.153,2.153,0,0,0,0,34.163v25.68a2.153,2.153,0,0,0,2.137,2.163H27.863a2.158,2.158,0,0,0,2.143-2.163V34.163A2.158,2.158,0,0,0,27.863,32ZM9.069,57.72H4.622V43.4H9.076V57.72ZM6.845,41.444a2.579,2.579,0,1,1,2.579-2.579A2.58,2.58,0,0,1,6.845,41.444ZM25.74,57.72H21.292V50.754c0-1.661-.033-3.8-2.311-3.8-2.317,0-2.672,1.808-2.672,3.677V57.72H11.862V43.4h4.267v1.956h.06A4.684,4.684,0,0,1,20.4,43.045c4.5,0,5.338,2.967,5.338,6.825Z" transform="translate(0 -32)" fill="currentColor"/></svg>
