<svg xmlns="http://www.w3.org/2000/svg" viewBox="0 0 36.737 29.837"><path d="M32.961,55.518c.023.326.023.653.023.979,0,9.953-7.576,21.422-21.422,21.422A21.277,21.277,0,0,1,0,74.539a15.576,15.576,0,0,0,1.818.093,15.079,15.079,0,0,0,9.347-3.217,7.542,7.542,0,0,1-7.04-5.222,9.494,9.494,0,0,0,1.422.117,7.963,7.963,0,0,0,1.981-.256,7.53,7.53,0,0,1-6.037-7.389v-.093a7.583,7.583,0,0,0,3.4.956,7.54,7.54,0,0,1-2.331-10.07,21.4,21.4,0,0,0,15.525,7.879,8.5,8.5,0,0,1-.186-1.725,7.536,7.536,0,0,1,13.03-5.152,14.824,14.824,0,0,0,4.779-1.818,7.509,7.509,0,0,1-3.31,4.149,15.094,15.094,0,0,0,4.336-1.165A16.185,16.185,0,0,1,32.961,55.518Z" transform="translate(0 -48.082)" fill="currentColor"/></svg>
