<svg xmlns="http://www.w3.org/2000/svg" viewBox="0 0 33 33"><path d="M28.057,36.8A16.358,16.358,0,0,0,2.32,56.529L0,65l8.67-2.276a16.3,16.3,0,0,0,7.815,1.989h.007A16.249,16.249,0,0,0,28.057,36.8ZM16.493,61.958a13.568,13.568,0,0,1-6.924-1.893l-.494-.295L3.933,61.118,5.3,56.1l-.324-.516A13.618,13.618,0,1,1,30.238,48.36,13.744,13.744,0,0,1,16.493,61.958Zm7.454-10.18c-.405-.206-2.416-1.193-2.792-1.326s-.648-.206-.921.206-1.053,1.326-1.3,1.606-.479.309-.884.1c-2.4-1.2-3.978-2.144-5.561-4.862-.42-.722.42-.67,1.2-2.232a.757.757,0,0,0-.037-.715c-.1-.206-.921-2.217-1.26-3.035-.331-.8-.67-.685-.921-.7s-.508-.015-.781-.015a1.514,1.514,0,0,0-1.09.508,4.591,4.591,0,0,0-1.429,3.41,8,8,0,0,0,1.665,4.228c.206.273,2.88,4.4,6.983,6.173,2.593,1.12,3.609,1.215,4.906,1.024a4.185,4.185,0,0,0,2.755-1.945,3.417,3.417,0,0,0,.236-1.945C24.625,52.08,24.352,51.977,23.947,51.778Z" transform="translate(0 -32)" fill="currentColor"/></svg>
